<mxfile host="app.diagrams.net" modified="2020-03-23T16:53:08.240Z" agent="Mozilla/5.0 (Windows NT 10.0; Win64; x64) AppleWebKit/537.36 (KHTML, like Gecko) Chrome/80.0.3987.149 Safari/537.36" etag="ncOb6f581jz2diaHRyrS" version="12.8.8" type="github">
  <diagram id="y79wlCjyG88aAXAsS-Hm" name="Page-1">
    <mxGraphModel dx="813" dy="454" grid="1" gridSize="10" guides="1" tooltips="1" connect="1" arrows="1" fold="1" page="1" pageScale="1" pageWidth="827" pageHeight="1169" math="0" shadow="0">
      <root>
        <mxCell id="0" />
        <mxCell id="1" parent="0" />
        <mxCell id="uEjKgLJkbx4UJNpJNe2C-2" value="" style="ellipse;whiteSpace=wrap;html=1;" vertex="1" parent="1">
          <mxGeometry x="623" y="362.5" width="150" height="105" as="geometry" />
        </mxCell>
        <mxCell id="tbbQ2e1bRk_ORc1xpDJO-1" value="" style="ellipse;whiteSpace=wrap;html=1;" parent="1" vertex="1">
          <mxGeometry x="354" y="160" width="120" height="80" as="geometry" />
        </mxCell>
        <mxCell id="tbbQ2e1bRk_ORc1xpDJO-2" value="" style="ellipse;whiteSpace=wrap;html=1;" parent="1" vertex="1">
          <mxGeometry x="354" y="280" width="120" height="80" as="geometry" />
        </mxCell>
        <mxCell id="tbbQ2e1bRk_ORc1xpDJO-4" value="" style="ellipse;whiteSpace=wrap;html=1;" parent="1" vertex="1">
          <mxGeometry x="474" y="360" width="136" height="90" as="geometry" />
        </mxCell>
        <mxCell id="tbbQ2e1bRk_ORc1xpDJO-7" value="Source data" style="text;html=1;strokeColor=none;fillColor=none;align=center;verticalAlign=middle;whiteSpace=wrap;rounded=0;fontSize=11;" parent="1" vertex="1">
          <mxGeometry x="395" y="163" width="40" height="20" as="geometry" />
        </mxCell>
        <mxCell id="tbbQ2e1bRk_ORc1xpDJO-8" value="RFE TSS5" style="text;html=1;strokeColor=none;fillColor=none;align=center;verticalAlign=middle;whiteSpace=wrap;rounded=0;fontSize=10;" parent="1" vertex="1">
          <mxGeometry x="395" y="284" width="40" height="20" as="geometry" />
        </mxCell>
        <mxCell id="tbbQ2e1bRk_ORc1xpDJO-9" value="Adverserial selection&lt;br style=&quot;font-size: 9px;&quot;&gt;" style="text;html=1;strokeColor=none;fillColor=none;align=center;verticalAlign=middle;whiteSpace=wrap;rounded=0;fontSize=9;" parent="1" vertex="1">
          <mxGeometry x="683" y="366" width="30" height="13.74" as="geometry" />
        </mxCell>
        <mxCell id="tbbQ2e1bRk_ORc1xpDJO-10" value="Time dependence&lt;br style=&quot;font-size: 8px;&quot;&gt;selection" style="text;html=1;strokeColor=none;fillColor=none;align=center;verticalAlign=middle;whiteSpace=wrap;rounded=0;fontSize=8;" parent="1" vertex="1">
          <mxGeometry x="524" y="365" width="40" height="20" as="geometry" />
        </mxCell>
        <mxCell id="tbbQ2e1bRk_ORc1xpDJO-13" value="" style="shape=image;verticalLabelPosition=bottom;labelBackgroundColor=#ffffff;verticalAlign=top;aspect=fixed;imageAspect=0;image=data:image/png,iVBORw0KGgoAAAANSUhEUgAAALIAAABdCAYAAAABmDw/AAAQgklEQVR4Ae2dvY4bRwzH1frpDLhwce/i5AoXfoG4uuIMI36Ds5HOdhUgQFKmcXFBUrpyI3cTkBzOkBzOaHe1kiyJxUG3H/P943+4u5zdzXa7TfEXfXDuDGzOvQFR/zBCYCBAjhnpImbkADlAvlCQP92mzWbj/N2mjzzoX+7TU3XO03T/pU5xj2+e6vTP7tNjTtsc22zS7aeadl9X4Z8PL9KTVzf57y595jpP+J2S9vM7yPtFevuo60z7udyb9PIPcfyPO1Gnes6Td39eBET7jtka6QeK/Jjun23S0zePprM/ptsRfGgIAnoDEIDc5ikG3Zw/q5EITIUX4Xr9kP6ZkqdJi1CrtH+ml69u0ssPD+m5A7Kq5+Ouc/5Nb1/fpOcf/jV9u1I/TGnvhZ0zH+QdoH78aZM2P33sDtAkkLPizwPegWMnUAyOk3YL4Fbl/fwu/z8pT51WQQ4AYR7V4JrjFwbZMdo3H+QtKfJm01Fddk06MB8OZAsPKSi4GWqadyEhkPV53j6GsALuDhKou1JzNhj6hZki1Fj3iduP7lj56RaATBmh8mY/ufVxGXbwtTXwjY/cAX5+wxhkApABngqNdSXYX9Zwj0Cu5XLZbhtCjbuztdtfE2FeDHIpNCtwzw0g4PXFYEm7JT985IrUc31LrMc9Be6oqts5GsTnH/5Mb187yjvJtaC8PNVFvz0u8laHeX+Qt9s09ovHF4eo0KuosgcPq/QuI/COQ1rHj50E8jaholtgJ6atxunVK/Z5/bMCyARqT5G3qNgdRc4XdY1rsuhiL8MjLtCsu4AdgDDdDH3YLV7odXzrSTDS7GDdklDjwxnhbJAbH3cjb9FlV6F7j9keHwPeNQ7XNaBOYt8W7yV7F1w9kNW93talUPmW+9R8nnZLXB8Z8+fzDzegnlpdw74ByNHZ1wDApbQxQB6o+6UM8jW0I0AOkFe/g3AKwwmQA+QA+RSWF2XGtYvHwNko8tdv39O5/nkdH/vWNcgA+QgGEtCuC63XnwFygBw+smcZh9p3rm4F1PtQfRL5VqUPRQ5FvghDc0C2QT75sbJYriRDOHlZVImXsMugRLp9FKQo8u9y2dCLdPdlzkXgX+nn8nj5Jj17+K+5gPz7gZZK/fy7zPe/dPeLWKJU8rDl6/w5j33aHWmr6o76YifIGFthYASQp8ZBjCPjplUSGoAgf3mfnr2q8BB0d+m3SapKMFZ4CTqG7es3Pv4eYa/7JdDifzQoUTbW7SZ56UYDEMemMzDqqzHIqK46MB4ymwOyH6aZA+9nhG8CyL/9epOe/PqXUFELowDNwm3B+/Y9oSHk/OB/gnBanlCXahRUNw/i8JHXAXUEMRwbgAwuhR+dNh1kckuK21Geoi0BmRSzwlKnewlUcUE8kH95n/6W+wFuu+/bBJBRfYUaY5oX6e5Buj31+K5BiOP7w94FGXzfnvuA7kI3VHObKAY5v1LAuCVLB42nfgAZlfkVKaJU1S7ECK8FlLaXgGzV+Gt2K+RsgXXMRrK0zZFuOuBdkG8/gWruq8gMdeuezB0kBhlifaUCN1BJxbX/qwvFu/QbbCtXBVwTC7xxV4yfjsbTKPT3RHCTKs9ta5w/HWDuqwHIfQinuxZQob5BcCWm/AIwqHIKPOtuGOgsyGYb1FwaBSn6GOS2Dgx/vQi1cE9pX5wzH17ZZ2OQt9u0710LLz3BPX7/hawk/I9wZEUtfjJuV1+UQGTf2YDlQNy6FQylf/eBVNbP1wIut21bYns/aL3+2wnyllc6i2X9Q0Xm91qwD+36yEsu9rLaWvfAAFpdEAscA57vBytl/56+qnzrPeNiNPn2XOuK8CzQz9/r+Ni3LswOyOsWsNaAkdoyNOf1u1YfRD59NgPkRtHXN5IAsA/gWn0TIAfIlxprcXjrWWKF4Vr8mOOyZCwPkSYUORQ5FPkQlhV5hvIuYeBsFHlJ4yLN9RhFgFwCma5n0C/RwAPkADl85JNbdideelG98Ink/sFNi8ouXwGAiEE/UGtZvtczy7SKbB8x86Nm8Yh6307tP+Ke+LbOrKL9fPjtmDPefnlSkBm4dQKs5o6PftOo807owaw1TsvjkB/52/dFb3cd5y8EcMhAfzxbkEulCapeTPLczpLn9wHkAc2/Q7hg0H0Fxc59d6c+ZiPLd/8flmXqVfpo7f0nANl8zQrf4ey9jtdrs0mL/S7SwnZ9az+9M7pub5N+X3R7fDvjVbwLQc5BP1mtG9iNqvNxjIQrCi++5ddb8jRwHfwlVGzBYLnQMX0LbmA2IHNdue5wPu+jBbfWBdB90pxjF+ViP1hD7IFsZiqvv3L+sr5NGxsYSRElXPTFqSn95qQ1X8Ky5StwnRema0OA/KfUg8RkAchWqWkA63Km3mBU9ZqqyF1YuzHOsnOXg0zAGsi+3Kdb8c1BPEdE9kGbyrdQMlS1T0yfodFYQ4D+8ftO5Z2jERtgF4Fs+4hU0X1ReccI9Fv5qf/1vjruCmRQW6HepL7gQmTXBkG/S2/lB0Dl+aY+80GGDhMDWJSqqASB3XS0KHgMMqVvFE2kx6VUpg5o/apz7CDVDrVKgdtZke/xq60GYlk2/4/g8HlU5y64eK4E157PdYP98jyGm8vJ50FdvfZz3Sb/ch8RgAwwAKdUupOfVlD+9EXnkxXWTeCx4i8IIMBcn21isGs9ch0bP5v6ZD7IOODCLWBXoYC8TdusDgSjGYRZq7C9ASd1q9AwBKITsOPtNp/X+ZXtkm0pg2imd+Ua5GOcrgNuMe5sNOWTyKUMB2TVl6LfVwOZLqSqio5VVYtANQAwgvGXsAzgCLZQYOiDrML42WUGvfRNhrujystAntGJ3jQ9VmQNWnMuDmxrHGzB0KHNX8eK1aAUuMh4CnS5I3F6l+029cDjbNTNwt3WCFpDhHb3QHbaKwd48f8EYlU9qMNMAVBlQ1pz1yMrri6DoTU+sIRXQs1lyOO8L//OBznf87QDraCQhRRAKqDWv+ymbZRtzjs1Zg6IrGdWQQkbgsqKa1fNGKib9kDe0ghk/6j/HZC5rFJ27UdVTq7z5HHJ5aJ7IC6KrbuAZbB6DgUB+tuobg9iLDureVFYa1S7tnU/LAAZMiDVIteBprsy6AiEmAIbnw/SG4Uqg2Tz9fxFu083qA7uHiBDR3M7uG4ZFG7z7Zv79FTc/rOKDOdVqEx7s3L3+wz6T7azTV/zzu1fCDL0F8GcZ7IClujXHsi8H2dBo67bfHutmSHleRnmfE6j2vkzcTzDtsdrHQcg15MqHKfdh0rOYCklO2296JrATP8IVobRU2Q0FJPmR2rTmdXlrED+UQyqqYcDpbw28Fypxuc+M3CaPjhx/a8EZOuySNdH3P/dYzBa10KqbesaTPOZTzzT7NEfxwb9SkAOII4N1rHLC5DPSHWODcc5lRcgB8gRj3xOFht1vWz3KhQ5FDkUOVTuslXunMY3FDkU+cIVmR/JTooRCGXaW712PO4d5p9jGvhRbo1kq+PCj6H1Mf2ImNM/KbEX9rh8vFzzHtbtSELRVWR4GvX0zcfud0R+hMpfTB0QxAoJQWeiyLpAmGAdk9c2r4t7/uGhDerx8kSD6pQ9OubldcR9HZDpSRQEtRDQj2X68R632n24LUIaMdBmrRgJDubJ+TfBMzagSc0o5gmfPIYzEDyNE+fI481SJ/nkjtUpp53ZVrVyAgffwDkAwotWk4HxcJxUeFqeMm0jFGgkHcgHdWzyOcC5PshlUHMUmBxQGQyTKwSPZwtQ5vi6MQUAiowKY4D4l0AqdVEdRsZZj+XHxgwd1ltGnVFeOkKtwmuNlwZrCcg0fdcpv07no2gvhgNBNuGV3j6KMzZhlqp/OEa4D6qfL/f9aX9dkHGQeIBRoTQ8Clw8PhhgJ6CGB2H+7whU/zMRpQyvHtJgM8gFXLOSBdosj7lB8BaMSdsVZFRmXGnxL4VWGkBLW2S+1pXA7Zv0pEm7W5F9NaZ05D9X98eti6zXkf93QK5uBVdWg2tUGgAp0HMcbwUfFVke37eBRTlBPasBQV2HZUE95cwC9WhA1vlx+5v46eI21XbWc+cqk6/APlR+3qiUHPf7+iF9VsvwOc0OkK1BuOO0Iw83DZd/2N8WZAWKiBJTEIAy0iA2StWk78Gxf8PIF6/565nE5O8pstwnoW4GpDXu5eCaenEAulLQqtJLygEjqK4KlzeGEGcDVQdOp3/nGNiSui9N04LcVS6tPgTwx3SrAJ+4FIlhN2lnN0KCWBTWugA8ENYtMT7zEGR+p0U1Gr+uS3zkumK4wOfdHWCXwVvBIQyvD+QA5ElqzD70j+leNCADoPWCiCEwgy6gac5lSMv027oAZZX1XJARXDFLeBd+tnxVRgaN6yZdnh0gA7g0A4jyVd7QVwtBhv5U95GdC64uyAQo3wNuLhBVvnVhbjEafm2Vq8Y673p/mbn4cX4bkH2lmV5hzxBgn/KjhYLsW16knz42l9xXK4PsKHdWqUa5A+Zyb/6SATtW21YGme8EiOlXrSYO9TjWwF5bOeuDHEobSnsCBgLkE3T6tanlMdobIAfIFzGDBMgBcoB8jCkjyogL5CkMhCKHIociT7GUuefgw5NurHGo09z+vJbzHUWmx6w1ZJEecjSRYwdWMu8J4cEHRT3OnRtTYB/nmsfM/IhZRKn9Y/oQ4yT4ePPIWOdfHzGHcQMXO0HG+IImpuDwnXd0kE3gDIVGGhgNeNWw2mg1HbwDEErDoPNrXEQO5Wzgzf2cjSDg7XM3BrkbSDMIvvGCa8BVKAE6Ji26ETqyDgDpgqwCh9p0nNbGKlfo/M7Q4ME5pIDT4LGg5ncOM5gIojYKKK+ADDMBn+sYC5w7rR5+23a1/RKOD0AGl6IHigxnNK4Iwl/Toc8rFB23GeocqVbdmDoQLsgmb3oZt6wLpccyTND9eLCsomaFzKs1xmmpTDQE/uxAo6A5Pw7BRBemKjRBTYtDOYqtgpuN5MOd+KSENoop9bv0c7og6zeuV8C8DpHQNa6Iihk20Pc+tdVRZMhbBx+R/+4ZglfP/r4KMgFJajl7jVrxsSukssy6kkOCyEYj9knQs1FIxcY6slE4Ci7LvJb/uyDffgLoqrKqDlHTOwUIFcDwWE2nFJg/uaAUuZ4ry5DGwftJaXVAEhjcWiCDGpbpPq/ckNtcD+9XwZWBrmkzrNl9YKBJdasR1XzFPsctUV8/CpDx9uEAZF5/Z6Zuxx1Q0OXj+AoA9H91egtjMQAzICrPfMzbVwd/PGvsOg9BVH6qgMnUrckLYTMqjDBnlZX/57wQ5qyqUHaFHtohy2797wC5HesxyHzhJnxcWt0hVDSrMwM5hA0h12A3UIygNWo/Sjv3Yo9XaBTf1IGPAWtWSjQ+cf4QDE//mJcEnUAt7oIty2xbI7PbvX64pv07Qa4riCuASlWf3ad7uTyqUWRwBTppmwcf3h0Ns/SqcWtq3jxwVL92Px/v/iJAvBxI+KxFkTOA6lZaVgeV9kZ/ntZ+OQnuFSv1N19W4ovGptxcN5O2256SvlWwS0vjgLxfoz1FRrDAL/YUGfcJhb+izr80mE7ZnpVB3rHUCdVUKyUt6NT7TtkhUfZ+Qnaq/lsZ5N1LnZRb4lwMnqojotzzBJjHbX2QwzW4iGgyBuRcfv8Hua5Gn1YT600AAAAASUVORK5CYII=;" parent="1" vertex="1">
          <mxGeometry x="374.22" y="185" width="81.56" height="42.61" as="geometry" />
        </mxCell>
        <mxCell id="tbbQ2e1bRk_ORc1xpDJO-14" value="" style="endArrow=classic;html=1;fontSize=11;exitX=0.5;exitY=1;exitDx=0;exitDy=0;entryX=0.5;entryY=0;entryDx=0;entryDy=0;" parent="1" source="tbbQ2e1bRk_ORc1xpDJO-1" target="tbbQ2e1bRk_ORc1xpDJO-2" edge="1">
          <mxGeometry width="50" height="50" relative="1" as="geometry">
            <mxPoint x="500" y="280" as="sourcePoint" />
            <mxPoint x="550" y="230" as="targetPoint" />
          </mxGeometry>
        </mxCell>
        <mxCell id="tbbQ2e1bRk_ORc1xpDJO-15" value="" style="shape=image;verticalLabelPosition=bottom;labelBackgroundColor=#ffffff;verticalAlign=top;aspect=fixed;imageAspect=0;image=data:image/png,iVBORw0KGgoAAAANSUhEUgAAALEAAABhCAYAAACZF0DqAAAQHElEQVR4Ae2dO24cORCGJ/XpDDhwoLt4ocCBT+DIgQwDvoGhVHa6gE/gQMYeosNeVJHFerDIfqhH0z1TgTDqB8ki+fFn9bA4fRqGYYy/aIMjM3A6svFheww+YCAgjpno8DNxQBwQB8QxpceUfmkGQolDia9QiX/ej6fTyfm7H5+GYXz++ta5dhpP7x7G5wxEdU/v2uk03v/cTs3+Pn4Y33y6y39fxl8LIJ2T9td3yPvD+O1Z25zOU7l348d/5fX/xm+f+ZqX/tJqduTyO0r8PD68O41vvz43RurTeO8BiIMgAe81DADezlN2/Ir///0yvvnE4CJYn3+Mf+eAbNIi0Crt7/Hjp7vx4+OP8b0Dsarr88Q9piyVdo6tcY9icnOIn/45jad/nlQhspNmQfznYXx76g0gD/Ckdu8f/+Oyp2AqMDhpB4CWFffX9/z/rDx1Wll//B/z4MFWXS92efWMc7a9Nod4IHekAfL5ILbgJOUE10JP7R4ECWJ9n3duGIc5EIPSKhXXZaLKf//Ngy2gfVFbbA8xdkhyNZJvrV2Lyl9uwG5H2/QxQZzgI3jBpVDq3ADGug/kH2uwexBzuVS2tpkHVfjEelDrdlp+7UwQsyHoXpzejg9/+BwbnfzunvvB93rp5TmGhMFrqKkLsobw/ePv8dtndieKHXOUeEh5tQdPspXtlPWI/0tbu/1Ut8/ZIR6GxgNgNhCVeRM19sAhda4rPt1QkNbxW2dBPIxTLsPcGWLazjV1u64054cYfeSGEucHuOortlUPdhkc8TBmXQQEAiG86/qsAz7UNXzpWRBPKO2sPK4LtHMOxo0hzu6B+p5ZAmyvy2ui01ZCDA1Fvix+V+w9XLUgxq+96Lvc2o1Q+Zbvoek+7YrUPnGCGm3CtJRO1Hnm1HlOGI6adwfiaOCjduqt2R0QhwK+6OutPQyYgDggDoj3MBLDhtt2/UKJQ4lDiUMFb1sF99D/ocShxKHEexiJYcNtzwahxKHEocShgretgnvof0eJbcBOXioWW4xSZJrewlTiH/KScdniJNJtUuGJ5eF+GXr514syo+VlHWFWLyunJWS7fKzz13kE7P2+Wd8+kxBjlJkBESCeu8VoaqfHooqZwJkEnBNp5roINsrNBunQ9R9pG5LaI+c0sN1ilGMyAlynrdz+2O6+PsSoqjqoHaBbArEfapmD5heGYOKeObUjwoLYaRgLHQUL5fxgQCQA5+VpQynhOADutP8ZQe5ADG6EH2U2H+LkihRXo1RkDcRJKRkUnuI9t6BSeIDYRrV553phmGQ/qq6cAQD8D+O3R9ioSpFw8vplOrdqA7L/yj6bEINP23IZ0EVohlsOY9lnB/cYV2R9wzLEqMif0rYjdCmUOreAsQqbjiuwZ0BsVTjtu7sb3wg70EY7aK4MnvV92eqjdeebEN//BLV8qRIT0LVLsrwBfOWtgOqBgi6FUEo4FuAlmyzspmGNX45pKmWmvXihxsv72bR3rz/ztQ7EbQDnuxNgUHswLK0gqpuCjtV5aV5wP6h47Yr0Ia5tgDpCGvNNhQf2jA5ZU49bT9OHmH7xx7gESyD2vt2gfXeLN4hmJS1+MR5btSPFNlAZgNANcaf7DsSeCud8Ldz2+NZBO2f9JyEeBtpSxC5BF2L63Qnymc0ASJVZ82CXpxnrEhg4h7zTuN4WT3Bnd0Ip+jAOKl9yOeQ3Djm9TVfKn8i/3Ld8ujwnANeQtwNxNPI1dOwt1SEgDoWM2IlbGvFR133O0qHEocShxKFO+1SnW+qXUOJQ4lDiWxrxUdd9zjqhxKHEocShTvtUp1vql2MrcSPeeVUHTrxrZFWes1U+r2DiKqcfdHXe8o89EGuI7bIxLR+feNn5pQ3aXramJW7a+tTv0HY+tATcj59Q9bgoxATRdsFSqm4TgwnjSFbGQc9Ji3EkNkAKbUpxKhSDXQVjYawKhwDUYbOp3WqIS4UTUK2Y4iWNZO9tw0edmT+7YEGH+wMLG/b7lzqyrNTNlAPnu2U59/fyWn3tAhCbICoEzg2MctrApK2DqnIwlfvGqSQ0DK4NvIJjKUL2frZnJcRy+nOC542a00DAiLai7KS2nbctddwFf9sTxfFC5W0jcKXtoMJjAzHZSrbDPXQubYK1s4Ruk+oeu4EW28EOwhbEZobytnXl/KW9bj3VAHPA6ETq6fyctCYktfvGKTMAIO8kPvmFPE4oKwwwhp77cwXEVqFT5/EWpFZHcKFzlbgJajNGWTbseogTrAawPw/jvXinH94jIvSgTiW0NAPFbWLaDAeMHQTQPn7bqbxzVGEF6yqIbRvBcZq+S7irgp77kKIF9X2p/fU5KSwiPUBsFV+dS3mVexB6qcyc13KIobFE5xWFKuqQoK4aWTRGH+KUvlIykR6nfmMDqoRqBNtBXGmtKPl8VuIHfGOqAViWTf8jNHRfsrkJLd4robX3k21wXt4H5+EclSNs9epPts3+pDbKwOTXpbUUz7abdR/w2HvlmqvuacAw8HkAGbApT/mSTWvHcoiNq5BgEyoEDZhVIV0zHbBot7TX2UnVGBgCgDqkdUznG5+yXmVAynvNlK7cgXyN0jWgLQM7Dxh4zbDuEAdi1ZbCBdsMYqu8DTWtbAXbGX54OFv8xilUV3pw+zL+guMSr53zzscEM0PPbbcO4gUN6E3NfSVm46CDq3uxU+uB0Qpqxyff0jA6bwVQASsNnAJc7jyc0mW9jR14Xfj7On09AOpBCLa1IHbq60LVqZ97fwJF+5lWDJbkCWntTpuGO+HYA6AWWxBwnReCbJQa+nA5xNjQzsOcYxRCUuDgxrD+pIJJ5lMpmgO1vF/9v7AzpJ1Z/SRoCCkprd3tYoCu6gN5ywGg7OR2cSGmskrZ8n7xf7ZZDx5xvVFmUjj2NV1QSDG7YgDtLXfCiLJdd0Jcp4c6CSiWyXYV1XdsWAExFJ7UqrgS8kXlCIOY9iofD9IbZSodZPP1/EN7TjcGA/QCiKHDqR5kW4aE6nz/Fd4/zQpplRjuY6BMfbNil0FCZQklP6l2q9Nz3rn+KyGG9kog52ldgkTgtyCm8403Qql8y/fQBKZ2RdiN4P6s0jsAg/0diDkzBuOy51DBCSpq4D18ekqM5/KA85QYweVBsJc2PqIdh4J4tw3sACmfBTz3qfKx9zAYD2rDjUBs3RTp7phvVlZ2ZO1OSJWt3YF5PvJlZ77diobpoxuBOGA4CpBr7AyIzahe04iR5rIiERAHxGbB5bJArhGEgDggDojXjJxIczy123OfhRKHEocS73mEhm23ofhtJaZl1llr/rfRWGcdFBNLuN2yMTaBosH8+AVawvWiwCDvtIUo5yGXd2fk3bXtFWa6JsSwyvT261PzvR2XNvyqyjcBMgk4HcHVrq8JvDF5UeDM+8fWW6F0yKMuZyrvfYhXA+K0wgQBKgnm5+I3eUuo9hweq2CWbVbFsIFNsEwVCGODk9RMYlbu5LUS/yDukder7UlyRY46M6ddGN+BKijVb8Z7Qwg2BN4E7cigdrie1NcASQoJM4Aqm+qSA4M6eZMNl/70IS4dmqO5ZGfKwJbcELDkWmAy17eNEQBIelFsCaJiC3UUfqaBydfyUjABh3bDcjTln/LSkWYMrh24qSPXQJyUkKd5ju4qsbWqHgwZlIkQGwi9c+mVDLWrkYBPKk27jskWLx/v3C4hxg6iznUCtRW0eL3TuU5wzPpK9yDNGznlgJOd79khB2uGuEBrAvKhzvKaH/urAZtXT4aY/FKAdzYs1n0gH9aA7UNMA0a4Luib53DJ2Xmvqfd2aRwlZleCOkFDa9QZ4CjAUxwuqVkKYlfXJVhr/i+KCarJgwdsRdWXtsj8wU4LeAWxzo/qX8U/F1eJ68n3Lu0cAknv5JUuwVTeCDzF637+Mf6SOyRKG3juBA8gLkOfm5f30jpve38NsYJERHspAEARUwdWClWlb4Hx8ook35vz1zOIyd9TYnlOAl06nvKoBzZ3Ot2z/hMVWCmnBmlpWZAfuQSc1oM4fSuh3ZZ+2X7e6+vO9q3Po4a4qVhadRK8T+O9gnvm9iEC3aRdXCEJIYCX89XTPjWOdUWMj9yFmH5zggeMb+san5hfelPAwyldTPFQN3ITzIOWtaMeEFR/H+K0N1GU5ZWdB3U7byrjMp8VxJXrgBUwHS6A4QelXAECtEy59bRPsFXTe24s2zHlGKEVs0N5CBONZ8tXAyVDRrZJ12MCYrAhKb8oX+UNNqyEGOqN8NB3vQIqapMmxAlOeijTqmrzpfy1UiuXQW30nMibbLvwZwVxAWalYd4ggHOb+sUrbXtp3SK9EIsd9cHGEDuKndWpUuwdNULAuU845/bLxhCzX0q7gvWu32M31txGjftet5+3hzgUtqxuBsyvA3NAHIPu8IMuIA6IA+KYMl9nyox2brdzKHEocShxKERbIaJtXqdtdqfEuDCSV9Tiu+XXgeDog82BOC2dcvxBWsBYvET8wmnaW/k7e2OrpV/69ca5IOkl2uqXzWnZWESb/a3aKAXfvFEvXKHydf4lzqLKg+6/nc9JiDFeoIoROH8DvTrEJnY2xRM4MQwuNHXklw6WAQDloEj32zgHLNN761MeAAGuz10f4mZQTCeQxguUAfegBNuYtOg66Ag5UNwmxCoIqE5HaW2s8ZSKa+igsZLyzQPHQmp2XCCEekBAeQriMojqvODeeXb4nTxV96Nf70AMbkQLEhmSaNwPBJ/ToY8rlByPCegcccauC3eCC7HJu/XuOSzDBMz3O8oqKU3rBjRXhZPNOAgoAqxSzpwfhVGi29JSZgtxPn78MlKkWuWqdOzq15vb+8j3NSFeEvMggavcDxXza4Bvvc6qocSQt37YS/66NwiWdQpDnGBM8KbpPb9XbQ4oxaeWgDIoHPKoVRnDMAlw8y64EkcsgubRxnI/57+szteTrgnx/U8AjhVVNZCa0lN8bYELr3E6pbz0mgOlxHyvLEMODDqfFFbE8+ZvMbaCGJROTvEAizwmO7xPBVaGmdNmJc4gEszJRWgo73OGzHFFEthmIMwZZFd6Twdi2i8nXQeOUpPgKOCyi8BRbDq9BbHAbxpY5Zmveec8oNacQwiF2tHvNczyRYs/K9QNQc6gyf9zXRBkUNOi3hywXtwGtMdCTrs8AmLq5z7E9JAmfNq0K0OoZ1ZlgrELGgKuoSZD7Kebj1F5m4aOIe3SBzvaWVGgdcAjsKuvwCofOP+iDk35mJd0MbQyk93ps4bWDjB7rNOLgWSE4Vrvm4SYd/oyfAmSPK2/exgfqt+dsFN+I221qOF9cyF+0wI6pXJlOG/qpFUQQ95KFT2ly/Cpr8syNCrtXfXKV3IhtMp6wNUQ8+BxfmbqRkClvvU+HYi9hp1/zlNQhAr8YE+J7TcO0SmHj2XwQDvnuY0hntiehCqqlTNtvtTnzlnhyHu+IB2lrTaGmB/8+MFOuwPKFUF3IgA+Cix7tXN7iMMdCHfglRkIiF+5wfeqZke2KyAOiA8/c/wPXjfH5Ljg88oAAAAASUVORK5CYII=;" parent="1" vertex="1">
          <mxGeometry x="374.54" y="304" width="81.24" height="44.52" as="geometry" />
        </mxCell>
        <mxCell id="tbbQ2e1bRk_ORc1xpDJO-17" value="" style="shape=image;verticalLabelPosition=bottom;labelBackgroundColor=#ffffff;verticalAlign=top;aspect=fixed;imageAspect=0;image=data:image/png,iVBORw0KGgoAAAANSUhEUgAAALAAAABlCAYAAADtRGnCAAAQHklEQVR4Ae2dv47cuA/Hp83TBUiRYt8ld1ukyAsk1RYbBJc32ATpNqkOOCBXXpNiD7nyqmvm1/kHkqJEUpRGnvH88S6LxczYlkRTH31F29R6s91up/gLH6yVgc1aDQ+7Y9ABAwFwzECrnoED4AA4AI7pPKbzczGgFfjr9bTZbJy/6+l+u50e3j939m2mzYvb6SEpWXVMb99mM11/Xa7z//78anr25ir93UzfZqjrSNlvH6HuV9OHB20zbed2r6bXf+j92z9uhF11+XN1/mNoVwOcO/xhun2xmZ6/f2hML/fTtQcfDgCC3XMOwN2u03R6tmVwO0JSoEWo3t1Nf4/UY8oizKrs9+n1m6vp9ee76aUDsDrXB3sMlC120UApv1XZEVvjGMXkogDf/7KZNr/cqwZkBw0B/ON2er7pDR4P6J/Th3dX08vPP0vbFUheOdjmlN0CdEUpv31M34fq1GXl+eP3oTpatsZ2689FAd5yCNKA+HgAW2jgN03p1XReKRgBrI/ztm2n7Qh8oOZKvQ10I3VUNpo6Yn8WqmUBRsdSeEGxtA4nqvi4AbodZbt/M8AEHsTBACSEEUqVGx1vQwaOhzXUPYBLu9y2b3M67uP33AH+cQHsqF+OAHBxPoYUm+fT7Y+yrRhGcXYv5CjHeuXlNk9xGyrqQqwBfPn5+/ThXQkhsh1D6kl1eQNnVlzu2inPOb5DvxwV4O22cbGXOgcVeREV9qBhVd6no6Gsc6E1BPB2QgU3Kkt3Kpw6A9SDZqPjAowxcUOB08VadRttr4u4BI248LJhAaooAnjVj1HxAs65FQagDQFMs4EMPwLefURkrMyCAKeQQN1HlvDa/XKfMHZPgAFQjl3xXrB3IdUCeMd9WlVvvs/MIYYOP6oYmNvM5dL9YqPQOUwJRZ6lyA2ABVDh0FkODRBPy04AHAN01QM0AA6AA+CYNk87bYa/i79DgUOBQ4FDEYoihC9O64tQ4FDgUOBQndOqTvi7+DsUOBQ4FDgUoShC+OK0vjAKbJNv0uNfsSyIMsz0sqOcz5AeA+dlSaLcIh2745Fvv42SsQaPe71sMX5kLPMYOOEdH0+rx8H8KNk8wh7OQz5tR/d9s15bugBjtpiBEAAeXRa0a4XGLKeaRBqCbTS7y2ar2YQb3n9HS4fsmjYbZjhLkLwBMev8bBvxeyi0aQOMaqoT0qFD5gDsp0umhPeZaZSY0aUSYCyEHRUxwMF54ABI9cF3Ut2xOsEWCSyUl78D3E5fLDwwGwBD6OBni40DTOFHDi+y4fsATApZpvaSATYEDgBss9O8bb1USrYfZwKt/AHw6YC14uACDDFsK0zAsKCZMrmd8ro4OMaEH7bx8d8FYMqtJQWUKtqvyyor/a6gHgDYqi+0i3bI+FjNFOfr3L5PHoddLsDXX0ElD1VghrkOQ+Y71ldcD6Zm3RhG8P9uuJm+we8KNAu66WQTh/ttJVuruk1drOjxORTr+r6ulhSJuxCN//EwHkJAh7UHQsug1nZUXgVFUeVWmd52f9rvA1zb4EM5PjP45Xt2xz7ts4YC00GH3oXwyvM6udmLOZOC5jgYf+tYtNzyKre4vA5HwGxMjErYAXhIfXnZUWNJUqjtQWrr9WUX4O2WlwGVMKCrwPx/IThGdmPgfS7i0qizYUAFBIcaFmDe3ljOo+rlMENC2AsLTN1iXZ7n8NimFfRQfxiAl638UOOifPTHLgYC4ErFA5pd0FzS/gA4AF48Lj0l4AFwABwAn3LERVsR4kgGQoFDgUOB5YiI76GQp2QgFDgUOBT4lCMu2gqFlwysV4Eb+cry5Ia/N/I+hssfpOLpySQ+vfQTqE5jxzoHhgbYPgrmR8Kb8ij5UGe2H0XzY2tertTvzHY9/GjXPk7udNBZAWa7lkt8mtNHOhXU5pawbf7nSFlMgHIfr6eU1pSGavO6qVx5rO+9HQrOUwOclYRgauUEz3GQPbYNnnFSFyrobH9QUSbYjXpJi7Wh+t1ty9iVfbT09jMAbBKiEBo3yck5V1O2TpBKiVHum51IZAq0dRIV2JITtzo+3wNgOeU5ie9GxXkQYGZaVnRW2c5bjTohgr9UiTPBQHnBIfsrMNvKtgPwvI0WrNrZQfukOsYudkU/2AHYAtjMTN5SrFS/tLcapBUEFiLpPwdYVd4pO+fNTgZ+sJWEp7w75EgAW2WmjivLhlqdUBwyqsBNSJs5xtKp+wNMoBq4ftxO1+KdeXiMyLSDc8rpoQmm4hPjMxzgdgCAf3zfqbpTdmAF6l4AWx+RClb/oFuBy/1IvtYK6W1rDAoA2Cq92XYcgMFRouOyMmVVIKArBwsn9AGm8pWCifK4ZMnYgGqjHGA7hx3f+EwhxC2+idTAK9vm7wgMH0c2N4HFYyWw9ni2CbbL42A7bON20nFgq3f+bNvwJ/uIwGNwAZwytbNt9acNGfB3ejuUUn83j5oGSxkAafAIqMEO+a8MWjbNCyFMeECgCfUB5yU1oH3G+bNWNXsdTWpWYGHHcme0fvP2xqc8rzwY5bFmGlchQNrH5RrA5kGdBgu8uld1tKfAypci7FoMYIKkgNRQ0cpWsL2AD6DNfrMThhEMaWuJF/uIAPcgng/wDOd503Ffgdlg+qyOxQ6tB4V+FzE7JX2qZUi6/gxQhooGTYYtdRxO4/K8jR24X8T3unwNfz0AwS5HgU072V4XqMa5NY8lADUUVgjm1AllnbsYrgLX9YKCa1v0Ma2ZYR7A6GTnwq3lpAxGMcbGj81Owc7TU2oFdKtdc0HRbIPLSzuxXf0ScgSUFdauUtkFGdQt4ec2q08HYG4rt138qM4p2awHTuNY0S5N++Vi14YF2AYrZVcISCGLkou2BwB22xV2kkAVO+W5zwQYDCOVyuGDfOk3giCmuiqmg/JGkXLn2Ho1vK5CyZNU32cqiQQY6uHzYNsSIHzO1+/hfc5lJrAKDMcVmMz5JqXOKsxtCQXfKL/V5UvdCZQ9AQYQCOI0W4kYNEPSApi3433cGi5Vb/6XA3ycDj9aq8NLDOwoe+rvBsBiBCkwzrcdlZuBuhCbsJM9BcZtaQACoFaB7YC5pPNZmS2rATgrwqU52IFRxv5eyISKbaG+tPNaiT1PAGAbmsgQx9xB2bPT6hCihBdVyAShQsBr7sDsP7M/AYD3d87Fqv6eA+0xnk8AHDAspobnGCABcAAcAJ9j5EWbERoBA6HAocChwKGGoYbnYiAUOBT4ESowPzqN+5Wn6dwdj2W76oa5BiWByctH4Me63j6oW6Uucs6DsqnUXz/2Pe/s4yowPD16/v6++Z6MrkND0eZBb5JdCLb2s3/te5NEY+rilMeXn1tvX0o5CQxtt++87LXzwgu+cACm5BFINiGQH3KHeI9F7Tb8rRJTlnnahR1nEl+qpBabaKRmEPNETu7L+QziGLm/WlIkn7RxJ6ayM/M1UP0UQAbKDlQIu0nAkWmHsJ9Ut1EnqKxqm8/F+cTBMTqwnPKd89CDcl7ZGuDcmSkrS3akTFJJBsFj1AyS2b/sM38AxGaoyZMlgLItymE0KMu+lOHFsKHd8IiZ66e6dMZYgdYOWuqAfQAmVStTe8nS6uXGcocjwAZAb9u28fIagp3UmTO/ii3StxRmjNjEtp3qswIYO4c71kmyVsDi/k7HOoku+59YD9C06FIONgmwZ4ccqAngDKxZOQLnLPfNS+3UIOjzLwBzHAqQ+BA69diQAX9fOarqKTAPFqGqGPdyyqNo70LVF3xpAC7hAztaA2tUGcDIsHMeLasYvRRR7ZdQ7fM9KyWoZRk4YCuqvbRF1g92WrgrgHV9fP5uMg6GSOU8y7Gi02X7ze8MkV6HJsOAXXUj7Jxv++5u+uaubGgDrBW3DCjZLg4uo/Ry/zm/a4AVICJrS3U+KCF1XqVMVfkWFHM7uj6eYu1Sv545zPGeAsttEuYKtnpQL9lhNRw+RKNtQn0aSvCFB7AXFjhtW5Wv/GN8feL9GuCmUmm1IXDvp2sF9uBraBlyU3a0g/JxEkBwWqpXT/XsXBt+mJi4CzD/T4gyWLINqrP2iYG3E6/ny9DhNC6mdWiDQwNzwWbtqAcDn78PMLUt2nLabtfJdZ/3UwFchQvYQaazBSzloiidBMOp7kKYjudj5gKMwIpZIV9wCQdy3dy+aiMBxvtkuLEDYACFFF+0r+oGG/YEGPyJ4PC9VgEU+r8HMIHJF2DVRZaql+vXCq1CELsoE8s7MTHbdQGfCmA7ouf+9gYAbFs0Dr4Ap831SxwvRGbh/lsQYEepkypVSr3wSQQgxwPk0n27IMAlDuXVu3p17tN18qVDsGb7lgU4lDU/tVwzFGuyPQCOQbfqQRcAb7fTv//97yx/a1K6S7U1AA6AQ4EvdXSO2hUKvN4L7FDgUOBQ4FGl23UcPvRIT8pOee84FPjRKDA9Di35BPRwosrkOvKVu/dEbxf8h+xHgH+/Ef8R/NV082POhd2f06+cEYafN9MXeWH449P0Quz/9Xeq+xCboywNOhNCaIDx+X/1zP/4o/XkACNgBdq/7l5Nz94YCCWQ6vs/083bq4mhhMHw5ber6dlvf6Y7GwR33i/aCggPZ6kNcDPBpZMU4yW9QEiQE2dMWQwXdKYbdGoTYJXQU5fjsjZXeBcoGjhQRwOdAtYqMxxb4AeAcQAkgPH720/TX6IOaO/F3T+rjj13+fRU+xsAQ+jQAkRml2nFppTGUg5jWqHg+JthTpljJVwpo9EFGI8vddM/oZa2UHlswyS795350ygoKSpkeAFkI/ExDgBW7BQusOJKmLku3ta3q/gjjmv7wgV4Tg6DhK0KOVTOroG99cqohgJD3frCjuJzbwDM6/ACMIFI4DJkDN3OzxxDazX+V4QMWEcCHEKMeXa2O/Ep1+MCfP0VYBNqJy/a1DRO+bEZLNxXyinF5VcLKAUux8pOkIOCt5OyinzcdLdiKYCt4vI0vxNcjnk5TEggS/XGwcAXcW8/TV/uXkUIIZk64HsDYF7fZqZoZ9pXsKX9JRtNl7cQZvDNCag60z5vG8N96Ccqb77oghi3vjBrgmwVFmJdhLh9EQjtQYhxqN1RvlrUqaf5KiRw49CyrL4LGZbVQLc6wK3HqHuv7NyLOAJO3ElwAeTY2AsRRFmryOLiDQaBHCytc4jt4+FSW4FR+dJ9YHFRBHBlhX1xO91W/xdC7MdpvkCryqYQoKgwDZ5cd7WfZwVZf6mbO53aqLfzfu8T1TXHsLD0xlPPBsBZccuSnWccTiC8+h6xDC08W2LbOLzgKwPwvMLW2Z5yIlAQ93oKbBXdhBK2/mP9boYHRj2XPu5Y5/OU6l0QYFLroqgwGEhVcZu6I0EDBUMUoe7ncvzSYI7Wd67zfUztLgjw7iVFdQgxb6o/luNHgVv6uGOdz1Oqd1mAzxQCHNphS4M5Wt+hdkf5hWPgtTp0FLilj1urvy7J7lDglc4alwTROW0JgAPgVT9QCYAD4AD4nFNItH3Yvfu1+y8UOBQ4FHjtozjsX6+K/x/tL2HQ/x7tcAAAAABJRU5ErkJggg==;" parent="1" vertex="1">
          <mxGeometry x="498.44" y="390" width="87.13" height="50" as="geometry" />
        </mxCell>
        <mxCell id="tbbQ2e1bRk_ORc1xpDJO-22" value="" style="endArrow=classic;html=1;fontSize=8;exitX=1;exitY=1;exitDx=0;exitDy=0;entryX=0;entryY=0;entryDx=0;entryDy=0;" parent="1" source="tbbQ2e1bRk_ORc1xpDJO-2" target="tbbQ2e1bRk_ORc1xpDJO-4" edge="1">
          <mxGeometry width="50" height="50" relative="1" as="geometry">
            <mxPoint x="490" y="350" as="sourcePoint" />
            <mxPoint x="540" y="300" as="targetPoint" />
          </mxGeometry>
        </mxCell>
        <mxCell id="uEjKgLJkbx4UJNpJNe2C-4" value="" style="ellipse;whiteSpace=wrap;html=1;" vertex="1" parent="1">
          <mxGeometry x="623" y="485" width="150" height="100" as="geometry" />
        </mxCell>
        <mxCell id="uEjKgLJkbx4UJNpJNe2C-6" value="" style="shape=image;verticalLabelPosition=bottom;labelBackgroundColor=#ffffff;verticalAlign=top;aspect=fixed;imageAspect=0;image=data:image/png,iVBORw0KGgoAAAANSUhEUgAAANwAAACLCAYAAAAK0ffOAAAbK0lEQVR4Ae1dvY4bOQx2m6cLcEWKvMsdtkiRJ0iVYoMAeYNg22TbA/IEV+RwD+FyDiRFiaQojTS2Z702i4U9o9Ef+X0kNaa0h+PxuMRfyCAwsA8GDiHofQQdcg45AwaCcOHhI8LZEQNBuB2FHV4uvFwQLggXHm5HDLQJ9/NhORwOzt/D8uN4XH5/eeuUHZbDH4/L7zSB6ple2eGwPPw8nwX89+nP5c3H9+nv8/I8IdSRus/foO0/l6+/9ZjpPvf7fvnwty5HL/f7+/IOxvbtV4B9Qi+3ECG0CZcF8Xt5/OOwvP3yuwGOH8uDRxYkLJHTExSQsd2mA9I8noGyvz8vbz4WkiEJPn1f/h1pw9RF8qm6v5YPH98vH56ANDXh1FyRWPoZbu8rEDYI18DUgI5HdHmFz1yMcD/+OiyHv340BTpEuH8el7eHHtk9xfy3fP30fnn39F/p2wG+IkZWjFP3CAQrpHn+lr4PtanrHqFOIhkagSBc0VHWgafT27l3McIdOSRtkO5yhDMgR8JQiOeGd0rRRDj9nHfvuCB5BBFdAoO3VN6xACcIV2Thyk7p5XaevRzhUGAUbtJaUIeX1fquQcx5ZTDhiCiwjgMCAcCV12solEM+Dj95PadJ2CNc6Zf79uYQhLsdEnn6bd27MOGKUDHEPLxdHv8p98qgaJ3YC0HLs159eQ8IZz1aw0u5pNOEeff0a/n6qYSUeRxDISW15RE9CCd1dj/fdyPc8dh4uZJAjx7vLF7OAzl7vS2KhbrlBcwc4Y4LekhnrRaE26KL119nP8Lhmq7h4dLLkepngU0vTRLIxfrKholIGvRQ75trLCIWecsqnAQjMeTh2vWDcK+fPNn4upGSP78LES6FiOp3PEk2Wy7LxEA3Eg4EwWsv/C3Oe3HRIhz+LMC/o9WhpGo3/87Hz+lwtF7DEQFxTLlu/DywBbivtc4A4QQBJpj8WgUS4w59XxIDQbgwInf3W9glCbXWdhAuCBeE2xEDQbgdhb1m/aL89sPZIFwQLjzcjhgIwu0o7PBgt+/B1nQchAvChYfbEQNBuB2FvWb9ovz2PWAQLggXHm5HDAThdhR2eLDb92BrOu4QziYbp3QscUwC7QDQxzDkfMiUlpWPaRD11gY1VL6SgtVvQ6dYedn8nMKl8yjr1C1K0+LULpNSVu1aCMD19XL78hkmHGbzG9IA4UaPSVjbAT6lCJM4TORwMvpd72V3E9gEYy7/TkcpeGeSyHadIxk8Ak/NT7Yf328q5B0jHHorvYEUADRDOH/7TdqgOrktp860t6TpWEpDEJgHEjZtoYHv5NXG2oSxSIJBfXkdROvo4g6NyQDhIJT0s/nHCUfhaA43s6C3EI48UAn1Spg3BHQgnN094N1LRzOUfhzgoKfVnjUI58gp6zvKVgkHa7BW2IhhYnMLznHJ55rAMyYc3W75C+HQ030kDyO9VL9t67nouiLhAOGsd8veMrbe3FQY2MfTnBFZJdzDT/BCp3o4Jl8dls5PxvdoHvibbWNYyXvePi/PcF3tyrbENII160i/rzTWqm3TVniAuyHoAOHaZBkPKQFgbeL6YG2DEj2bAnHxerNtwfN+GNgnXD0Gf7zjntevv2U+Ued6ZTlGOD5p2YSFM4Tz3nLyOSfThwclD5XXV3it11LHI3vC8sreAyISwq7p0ON0CDfk3fgYhsbpy+HV7sarSdwNE+545GMRSljYJRyfS8lrPENWGsSWlybJetmwsAJwi3B8P4WUylMel6Nql8NOSZpU39bD/k3b4lwVKfT4fr0e6NK66RDufoVyaaFH+/eLrSBc5RnvFwxhCC6v+yBcEO4u11IvZVyCcEG4INyOGAjC7Sjsl7Kq0e/lQ8VRGQfhgnDh4XbEQBBuR2GPWsF47no80rl1EYQLwoWH2xEDQbgdhX1uaxntvT5PeBuEa+zX2wTIlf9NvqnNYVKnzBvMzvETxi/b/+sD8GuTR5twNjWLU7QOJbXr1Mm2U8M4jYyPb+iDr90Op1r18ynVPF6UcAz48yV6q7mtEB/zSvPWIpubymPzP0fqYsK3m+6Wtkilvu2+RqpX0uzeuG3445qZ/x7PtgmXlUPgb+2JO2WQbaIY4XVJAOD0jQBl6n9ePswoqNuXGVeW0bnvvwDhTAI4gtxN6nbmaurWCeEpEfzp+/Ku0gUZxUKyOmkcxpIT1S8mc2deF+jrRMLJEMjZqGq8JJMWdw5kj8le7LA0dw10Qkb/6AbO1AfPBgrc7uF4rDx2MDB8jw5Ist5Xy6R6xh6uhHKwBqNFOOP5vaMpUvtyvOtG0YJeym8NiE5d3LxbZP78LX33dlkYssJYyVD+yi9zgnDIfOv5CGjlGIUWaIoCRz1ck1TNPXYSBNsJR8QyZPjncXn48juDAZ8ROyFgTtlwJPAXmRiZoUGyhAX5+LJTbafdGxWxNhHOyoi8TP0PJYvuColJ1toDefcaJAbCWU9q7gXhgHCgWAG0bPmz1SUCVoAQbrpPOKpfeQhRH49wMGNAICiFWTB5oBH3Ukj5+OXtcmiEqgVsSQ75ORpzk2BIBkkw+zyPA+7L5+A+3DPkh7F685cyGvrOMiKiMNEA6CXU47HVnzaExOuPThjoebjqKItEdkFCGIf8r7EjY1I6GpJBPa9LtLE9pDThIhFDWHeYZLK2VGbAMnXqlwdM8hYF3CwwBk/rmu83PuW8svGQz5qwToWEqYzrNQiWjVAi948KEA7hlCxFGH42whGoi6dqeKlqrCCbQlQgxrunX8vXTyWkzMB1CWf3ILaOvGAdECFfK+lOI9yEsr3wrO/hWMD0WT2LAKxJ3NpAihbS3TSq+6GDj6BdInkmRwIahnVy3mYcWC7Wp7p+TdbaYMB4WoRz5usSwMxp9RkijAaxNVwzbUJd5y1ni3BmfOAh9Vh036OeNxPdtP+S97cTrgHI5mQca27XP826laeYORNzEjhynMmrSFIgodiD2V3whnzVfKBtSdYmEBzCcV+5bw3C3FcasyZ641nRP4WBxSvZMBHbxxcc750Dl2T75IGKpxRlA4Rz+xXjJINaxpnnLZ+54u8nEA4ESV4gh5OHw5LBicAVoU+1JoH6xuJnMNl2vfWMvScUqwR+AuGgHZ4Hjy0Bmuf88OVxeSvWVtbDwXMF/Ga+yRO2ZQbyk/Os65e20/w3Eg6AS6RL6yWxhsqgbhGO7+PvaDUZVLv5dz5+ToejrdPTyhrO8ZxK3y0cXMf9AcJdx0Cz0vm1PBPgmoTteTi8l0jjeTgk9KVCxevTndTjPX5/lYS7WkU55JFrVy+ErtaE12RAYiz5559zYe7OCGdDVRnymjesG8FWh5TSe9Uh4diaLjzVuQD/0u3cGeECuC8NuHvvPwi30ZPdO3Bi/tuMdxAuCHf2dUqQsU3GIFwQLgi3IwaCcDsKOyx/2/Lfi2yCcEG48HA7YiAIt6Ow78WKxzzbnnydcJzKNJQD2O4olDAom5U0qa4cMVexbGXx8hk5zcorg7bVVhhO9lZjKu3XaViDc7xjI7dKOMiOePvlR/P/fHcBcMeC3SQXk9xL5BjNHTRJw6Yt3kLz7un78sHbq8ZbbJhkXd15uwuCbCM6XyEcZUZAci0Rr73TGTqzqUt4LbaqYMLvuXIgOak4tV8l8drEauWhTcaJLMv5kOIZWc7zzPOSmSQMulR3cq7oXRTgDYk6JEBymoRjuY0FysmrNdoEL6b65rk4n0jmUUPg1O/MYwS0r/mZPuEy+FLWvASeTMpNAoS0pgx8U37enEEAtMyit0olwOexKAWTESllKd2KyYHjlln61JbO6C8ks0aGwLCFcOQ1SqhXsuh7e8MYfEg4Qxjv3rHaYU2yI3KS9+PM/DIWLV9JZO4/PrWMWvLoEg7BxEB0NkUqgmF5B4hOYm9rUOv3e4SqPa1qzxuHNCyJcJlgZmc6zFmWuZtFFcHHFMEhH4AcPR3unP6vOlBHzUX2Y0NIvPb2rnkejsktvBau23gLjZhDeLeT3up2CFfCSVayJpjxegDkTE7eR1a8EHo4WS7BsuV79kTgjQrRYazdvmCc0lND3xXhdHs8/2r/Xg4ryzzLswKkQ/Nj0OtzRGa8CXo03m/26fvy7O6cbhNOezTrcWk+aAyMJ90+51kZvf7n24RTgBZZ9Qqs4GkIbJXlr+q3QHy6EGmtWNrXntm073k4eU+SryJKbYTOCbYazD7oR/uE9jSJQBYe4cir6tDV6dt60Uo+RtZRXnnDNuGankBbcyLaj+VBEXHwCAQmpak7Cqj8nCQMKDm1q0M/BoMNR82arks4PpOykDuPQYFryxquHKaTSYJhnQjzoA8OFc0LEjuOmrw8f59wdHSB6Mvpu90mtx2fVg/2ukk4IFJ5scCCNOAU4K6eZTLlsKsO/ZgYVYinwMt9i08kmPC63gsU278idSIEj02GuiuEAwGSRxX9q7ZhnBsJB/NGoPNvXYIALJMm4YhI/MJDeyvbLrevPaAKSe0hQK01HY8rPitvZskG103CeQ/P3PMIC/fUOi+UNKSkGbnHs8IwXyG+LkQ4xxMmq195wisUSoD2ukH7mvVzIcKVdRSfbqVPrwqFvmbQxNi34/dyhAvPFeFiYKDCQBAuQFGBIjzYdg+2JrsgXBAuCLcjBoJwOwp7zfpF+eU8y7XINggXhAsPtyMGgnA7CvtarGyM4+U86dUSDn8kT5kg8dvduQFy2ZzQWyI0ZBWdE38dwlF6UslHJCVNp2Gd6EG8jJWLK1SlVzlbVLpzmkmx8tvGnEX3/5KXHQXD/+/OGeutZfx0U9Kc+Sv8cKqc2GXxr6pjeXCa8RsmHOYPVjmDp3WuJq4mWdrdnXAmI56U6eQ0uuMlQpQ8RpsoDNelrbrt9PzT9+WdQzidPEzPlr6KzLpytYne7jwG27pIXQC4TpDvzsckWaOMVhK7S3sgQ2n0rP6SHAbya0ubfdmNEa7ZYUrS9ZKAvSRfeC4nCpu62EYt6CbhVAJzXQ8EgJbc7JVbE4wGNQgvkeDvviCxXaN8uIekau0fM+R+/paUb+5j2849bHsYXDD+tVDS6EQaWJsMnvXopfF59wbkl/oYD+Ecgjhyauocny0GEJ4D/XtGrInDSZwNEA6E1wK03KZCysohKAqv1EPwCwXiNSstCTrXFZbTnahpu/ybYK1U7GOKcKTAvD2GD9ZJu6+biuPxAuEsAbx7/HwLHN592w6SG7L+NWC6Y0S5SZ1JeZH+fLAb3Zq82Dr6geeL7rtjYlkkA+phoF3feigyjhBuFx3KOdrvpO+sM5Sp9HjieRifwK8c0wzOVgk3kwMpyVEpQYUyVoFtiyjb5EnWC1mqP6csIUxWeiIYKAs93ewxB5U3TACwJMT+krI979cjHJYx0SzgvDmJex3QVPrKMmkcWaHaMgSDMjamoh3Wn/3EvmcJiu3y/JMsE9FaXsr2y9cU2rNMhbzk2LvGqlFH1k/fVwn38NMIUzaCJBL7wuS/18WyYuXQCmQlEEGyUqzHEn14hMO2OIwVn+ciHFhIGVZMKTB7nqRAuHZIhYR2icibTI2lze0Kj4bkE9dCbgwm+dkjldaPBhDWy7pLZYpwesMxtDWui4SFzYQDOUuPZqMUPRcpDz5HhvXDxPO9Y4cHK3KXfQ4Qjs8nMaEIkkQLVpEjlZfdArq+JY0fymhF8sBVPxOT5fq9TySCIsiMAmvlghIleaFv7KMXCnoezrsHJGyR1pOLIYmUg0uq1IZH1OpebhuAqXUt+2l+RwOt8dR8Ns+NdKPly16v1kXVHhoxbbCa6+L9PBwNvBKw9UpJYEycLikmBu+2g30V71kJMimESD2p/ORJspVzlJIto3rDVSvYU94q2WDsHrl4PZkJ5oGtHoOSTU/uWNYAfFUGpLLPJqL9fNj+u1XqhzGkxp5JpudIXqlEA57Mm8dSoG5L3axXZXBTf9mg6P5hjISzdTzCs2MeDifLrr8AmDpKIeUfj8ujPJYhCa94OHiuUTeFhUXQpFBd1xz5kAhenilts6I2EQ7mmkiHv3W5nojA/qYiHN+nMIdDFR5PVjz/5sOfScEEnlSXy1Qfun1t2Wsg5H4zWEmHRc6mjtWZfElgyrw20ChvCg3lOED3Y+Dl+Sm5ZYMk2kQD9t6NBlRdkLlHtkQqb84wBpq3wWeWuRhHn3D6QZ7c6CeA3Q4QCQBrAVSeIQjemxP06FjiOaFLNFRG9g1whNyS3Dy8SpkNRlwgz46HE0qSjQ999ywpeS0koaN0shIBhD1Ang3fkC5PwcEt1CXc+i+BOBIbdxQXItz6EQsU7sk3nEG2PchGfZBB9EF0CyQ53xzAEdhI7RQ9XY5wYT1j20tgoMJAEC5AUYHiFAsedfveNQgXhAvC7YiBINyOwg7r37f+9yCfIFwQLjzcjhgIwu0o7Huw4DHHvhe/WsLJnw3O+Vo2AAGAiJ8FRnGw488C9gc/UlJrT9DoBGafA+LtTjiV2iVz7frWi+aWtuSk1Kwq/Wqlbcq1TOldJk2pSkNSWfIjY6Nnbu2Hby0XnYw8hDdO/UKdWX1bHozL2eu74+F0R5gJInPrdgrFdiecSRwmZY4q0SYUE/lyIjTulytt2bbxWpDM7lyA8orAs3pwsnw8YLzcPcDdeOaG/b92KDMhw9V5VAnMDqHWUrsmdDBGuGaHRMqcQGz2TFG6lswmiSMWFAAUuS05edeAJuhphFsLJY0+pYFFDAhdZl1TmzoK8e45QLZATX3otnr1rIFjmVkv1WoD6o892zP8GDGIxHylYzPHAcKB8HyL8+MvmY6lPSIlKJd6OCihQLxmpSVBe6lG7kTx+dL2bRyx4O3j0vdO9nAoN6kzCUTSnw92o9tbOWIBDd7n5evTn7iJFXeHtLwjRAYCv5JUZyUceC9fCVJZ9F2SowpBVShjFdi2iLJNnmS9kKX6HmG5ztgnWcyXOmLBhpC0nisWmEJQsX2nsZWkOdcOaCp9Ccvslqm2QJ/GALIxFe20xoXty/oDdagtNkikN975DXIbigTSero8m9rx5No1VjUXWnMd8HBGmFIYSCIRZkhyYllRAlqBrAQiSByx8H3RZyBSWEn78ODYALguIaVWYgccUkfiu0ucVK71owGE9bLuUpkinN6ZD22NG7+Ehc2EIwNU1snFaGp56TlhGRDOejTvHsqowwMh47U+BwgXRyx8/STPzHAU1xG4FwaS52oRSbQPIY8FhOgLPZ5njcUzCgCGJLLMJVVqxyNqdS+3DcBsha1ibnaMaKBniAptEbmKh4J77PU6fXHfKaR85mv4bBFuPw9HA68E7K6jSvjphYJZwRODd9tB5RTvmduVgstb3yeVn8KMbDHx2pIjeRe1G7tWMBLCEGaKbL32ESyThqAndyxrAL4qA1LZZxPRXtMRCxVhPQInvWaDUusZo4NBDz3m4RDI7PoLgKmjFFLGEQvZ4nJIWG3XTyTJ5XyMQvJSeo3WIjmv4crarmVw6vukw+aaPBErv3WWLwlMmdcGGuVB4NVjYyDPh25KbsbAYT8sd68sHW3IOtHeksekQ2Y7dpp3cTa2XF53CFc6kxVGv3ueCQkKawFUXiEuton31r3WaP/xXEN/GB0Y2ZvIIGRnZOfhVcpsMOICuV6IcJ4lpTAELaOjdLISAYQ9wJ4NnwRNfG8kcXvhMxOSyg4TXv1ChIsjFvYgzvY+yCCOv0lkgN3fJzgCL3zeKvvLES4sZsNi3h9ot4LzFusF4cIwhGHYEQNBuB2FfYsWO+Y0F7EE4YJw4eF2xEAQbkdhhzeY8wa3KK8gXBAuPNyOGLhawskslnO+lr1Fqzk/p/hZYF5mvncGnM78vNIhnP3Bj5TU2hN0rgnYdmBCuxMu5VNSus9sCpXO+K9ShVbaplxLTt/yciV1+znnc8JK39oP3yq1q7m7wicM4o1Tv6ojFrSsEQ82PWwyQ2qYcJgJInPrJhRsSTRzvTvhUPiFZKRMm9fYUp5NfiWFFVLAdWnLto3XMvvfJk4nYJT2WuPo3HeyfGb0cflnwdBPpPgZGaHBsqToYRXrF33r+Wl96TIhY5DpIDfGCNfMJePUlpTAbPZMcVJnToaF/wOXnzF18X/E1YJuEg6Bw3vx6nogHLTkk1tFUGES9NX/7RaCtoo0yocxVCSSdQy5oW/lEbG8EBTKTyLb6mldRicSRIgBlrfUo5fG593ryI1lkvoYj2isgTv3EQuDhFuVa5n7AOFAeC1Ay9xHUlaOZ42rRfALBeI1ky8JOtdlBbT+EZ5p+zaOWCj/CJJIlbYAZfKD8v9cvj59LscBCG/ZtL5Clm7SeC4n/flgN7q9myMWRgmX/ikj4znLtBCN9bNKuDhi4b++l1LCBQVJL0TX1a5irGMJxcpJdT563k7/h87p8KkT+vSWDG6ZagsIKYwylA2Aj0FIkZCor2TKcvE+QVYQDiZZJtlXkUKrPYxIpJytToouVtfzSh7eWOneKuEefhphysFDJ+nfBfNntpBYVoSoPFpywVkp1mOJPqBebjPdx7ZMv9C/5yFZqWOfRXEytBtWIIwvKZEU9Hl5huvspYoiXLJgXV5PGLKa8BLn490TsrNzdokjZdogCdazZQZgUk/wfVwX6WWcJGxnDnpOhRAl1CYdlusic123sbsbdNBaAyr9mHYRwzLiM+VpTgOEiyMW9jligYAiiU7HBbDHZGsuFDlJOAy9RVgvAeiSKoHEI2p1LxMQDPQ68GTf+D0Z73GighxaMmOjJWTlkdiTX49wveMb8vz7fY4Rjv9xuFSW9UpJYOyNpMWrhDtoDaCe2w72Vbxn1X4SLtQ9zCofrRiDnD1WeXFBfbEn7CsWX5gYa4mezV17pTalNzQWFeuKcnvdkkO+35M7ljU8U1Vm13QAskS0Wz1i4Xhc3KhEGiUbBTgkHyYcn0cvAUyATm+u4oiFbHEpnNTrLQQ9WtTyG1v9XAmR/DUDEz21IciXSeUouZStvD1MxOLlgXrVbcrYsJa204uDTaGh9AqdJUxjbvTzSpKJMXBK7l5Z74iFZHxrPcnxwneS64h37hDONjp37XkmJChYAVSeCTvw3rrXkgqO73M6QXlhdGBk3wByyHdQvoPhJMjzQoTzLCmFIWgZHaXjmmA2/AugbMqDzIYv5LdJfsoQTTqKCxEujlhQSrk6YI+HQNc9j0EPdEH5g/EaCSVZjpcj3AUnyYOPz5cHXOhgTgdBuDAMp4dVIcNhGQbhAizDYAlvNufNPHkF4YJwQbgdMRCE21HYnsWLe6d7jdckwyBcEC483I4YCMLtKOzXZIljrJfxvEG4IFx4uB0x8D8xR3VQBy5HmAAAAABJRU5ErkJggg==;" vertex="1" parent="1">
          <mxGeometry x="646.5600000000001" y="385" width="102.88" height="65" as="geometry" />
        </mxCell>
        <mxCell id="uEjKgLJkbx4UJNpJNe2C-7" value="" style="shape=image;verticalLabelPosition=bottom;labelBackgroundColor=#ffffff;verticalAlign=top;aspect=fixed;imageAspect=0;image=data:image/png,iVBORw0KGgoAAAANSUhEUgAAALAAAABhCAYAAAB21SvUAAAQNklEQVR4Ae2dO27cSBCGJ9XpBDhw4Lt4ocCBT+DIgQwDuoGhVHZqwCdwoMUegiEX9equqq7mY4ajGUoVCDNDsp/19d9FdrV4GIZhzL/sg70ycNhrxbPeOeiAgQQ4Z6Bdz8AJcAKcAOd0ntP5pRiwCvzzbjwcDsHf3fg0DOPzt9vg3GE8vLsfn1nJmmumzh0O493P7Yz/7+PH8ebzB/77Ov5aoa5L0v56gLw/jt+ffZ3/G79/kXI/jDcPf6yqPf8Y35d6fRhvvvwY/11Rt0vBsYdyLcClU5/H+3eH8fbbszVEOf803kXw4QAg2KPGA9z9PD0UK3///jrefK7QImxLQXFpEWaT9s/46fOH8dMjgNgCjGUVaOna94//cd/Bb52GYK/nV7az2CDTAWObAvz0z2E8/PPUgZ4UfBbgv/fj7WFq8ESGC6BA1dPgROngWJB2sND9euB8ojyDY2YA4Pk6sKDTAfgEuGePdcc3BXgQF6QD8SIFPgpgC9yAANKU/un3XIcQwPa66NgwDgGsA6i3VmtUcyhboKW8yjV4fsnAmqt3nt9cgcltIPeCfGnrTjT+cQd0ymeNgQRghgWm+9/Llc4o5jCM4g9bqGcARrgFXKlPbYPkWcGu59a3N9NKn22rwM4/Q5ficDve/406nPzsKZdDKjn/CcB4xe2oqKsj5V3Bh5vA949/xu9fApXsKTCWLYoroMtvzpt9ZAG5GRxhvaJ+y2Oah7MCPAydmz02FiryJipMkFi/slVB3fDp75BWAFTARABHx7RbgS6Dzcsr/nRdVPkJeXN/dV6A0SfuKDD7us1jtKN8YJn2q2qGkMg0r33WBgpS81AhI1j5JrD4uP6msPF5rSInvKcN0A0BZpfAPEfW8Prz+pxqxJEAAwgyPeOz4AjSHsAIGbkg0XNek295nlsHizzJkGfQdiZw9YL05ZGbanczkPLcksHdATg7b0nn5TWX5yQBTuVr/Mo9DcwEOAFOgPc0YrOul5/2t7RBKnAqcCrwliMq83pdCnlue6YCpwKnAp97lGX+qco9BlKBU4FTgXujI4+ncp6bAafAPviGl3/VtiCKMLPbjko8Ay8Dl21JKt0mDZlZ8p0uo0asUcSZ7JggyGi7EC8nR8vQqNQStaaXkRWkvaXqVPmzqfwkwBgt5iAEgGd3VbDB5nZoTAOnwID8XCANxSfYKK9+fj5azQXswMAo8Qn9YBss8+Gr2yIk9aR0nx5cgHvCezZ4wd59gFFNbUA6JFgDcBwuyQHvK8Mo7b4zgMZBOAUKKreFnWB0my85DzznVbgMICi3VeCSBsryaafqludOArwDMLgOcbTYcoDJ/SjuRTHUMQCzupXtQaySGHxuXYFQhSOoomNdgKk8ijILAC5wD2Ozxai0W5Q6P0MbHdlPIcDgw/bcBHQLuiGTw1j2xcE1zv04vuIVYPFVAaYpFbVlebWm36FSsh9r4oEN7C3AZpOmuTZhtXbYvj9CgO9+gkqeqsACc+uGrG9UrLgGnLkRDGCVWN6v4y/4Xfxe6VgC28bzemDdbw+s/z1Xrzx/DheiD99yFwKg6A+EtRC3PnBV5bV5wfWg3i2oQbC5AV+C3vnz4Q9uka8Dw543Kp6gngRqz8YdBSZFOvUpRJRe9smt3szJIBUo8Le9Mas7I9qbLN0B5YarQEXK2yqyKLP+dApc8uBrUoHPAqq2n/4+CfAwyDag6gZMKrD8XwjxkUMf+JibOAWHdgM8PLI/rXlKUF0QVEvnOiDQJd+qomWwmHISYA3Qpb87gLXS5PdLGyfLn2cwATbqOt9hCdV19VECnAC/qM+6tQAkwAlwArz1qMr8rmuavmZ7pAKnAqcCX/MIzbq9bjVPBU4FTgVOlXvdKnfN9t2vAnfilY/q7Jl3exyV52Jl55VJXL2MA6jOW/6+B58F2C8Fy5LwoS4ln9qZ/aVoWbaW7UrTxuznI8vG0/EQph0XBVgA2i7wybRtZiDZZXQfWyJ1iz+XpKXw154tOAaFl/HN0j2HtZZAqc4mAQtwaSzB1IsJXtNB/to+eK6TJqECY8eDCju1u+3HlSHtnSyrk0bSbvZ5AYBdQBTC1gHF2xED99U/Acd+N2kJzt6bnWiLGL0KosnbvWRHgrRs9CDZ5QiA9ZQXBL47FZdBgJFpRdFFZSfeajThIsRblfS+uZmAGw+dA1jqKnWHDpZjtGHVzw62T5pr/GZX7Ac/AHsAu5kp2orF+ev6tlD4gUgzlYFC7yzxfWR+B2kddJNvduI3NRnF1fljPexs0Iv9XgmwV2YyXN021DNC7bylCtyFtBtjrDv1eIAJVAfX3/vxTr0zD69RkXbQphIeyjDVPnF9hoPFDwDon7jvTN4cHdiAehTAvo9IMWHK7oJVIKO+ttdFx7SoVAZoP+PH8fuj22Tg8i87ZnCmiN2QdQBDRynDFWUqqkBANx1cKja3KZTSNwqm0uOWJVcHVBsTh+uNozsv+M4KfI9vInXw6rLlOwIj11Gdu8DitRpYf73UB47r6+A4HJNy+Dqoa9R+qdviT+kjAk/A7SmdV3TvMog/bKHuACz+rQprjdwXyXPqzU7rAEZDq+lfXIIC8DAOrAYEoev8VbuaI0OTmlVYxPhijN5vOd751O3SbSkwuGncuAB8TtJ1gC2DmgcLvLrXQhEAbPpS9ftmAFPsc4Wuo6JNXaHuFXyAf9WbnQIXgXxicRs4bwZcQK71rH23HuAVnRdNx0tdCDBucy0atB0UdENRA9HLnSvc3apRboGpnUAbUSFfGjQFNjYcTuO63a4eeF4Gc7MhtoW/HYBQlx7AQXtDoFR7Fp0nSIwP7PzYbn+F+YOICICqLqFf7QVHlJrTu5tLqIdXfKnbOoA7BpbMms9Abbz/2KSRzmmULABarm0+gw5qrlGdrOvJqqchQ0BFYf0uFQdz0x7IW8PfrUcAsJRVylZ11vlwnf3Aa+qi0wgUavdKCAnCNCcE0N8d3zkEmF5CqcUFXQgRm8bntYqs27USYOhAUilyEWhaK8ZGENRU1/h0kN4pUjGOzzfyB/2xjkHXKokGGIws7ZC6MSDS5rtv8D7nqoxegeG6CpNrLyt1v8+g/3Q72/Q1b27/kQADCDI946xlHoNx3j2A5Tg+w21vsEy+ZbuWvs66IBrmpl4TM2kH4B4YlzuOyi1AOSXRI/LFv0cKjMcYwkiB/YC5pvbsrC67AfjFwVxqyABG7ftHLlPjUy8tK69zN77N/0a7nMKeD1DvmmgXRz2/PQGO1oWo7kXjMoELscgnfo222L5NqcAngHu+Qbe9oV9rXRPgBLiZlvcEewKcACfAexqxWdfX5Z6kAqcCpwKnqr0uVduTPVOBU4FfoQLL0mk+r3wZ484sy04qooQm8nJtFLEly7r2nFvKDZd7eWaR+kmswhUN+lCBYfXo9ttT9z0Zkx16RY3bRT1dsAvBFkR1hf3qgmhcXhLy+P7xRz/YRueLoPqyKTDq08PHZZF9Or8X+B4ATMEjEGxCID8XFYqWRf0x/K1CCzEAZqsYBgmy4fyboBYfaGRmELcip8+VeAZ1jT7fbCnSK23i/3LalW01UVhocAflBAQIuwvA0QHpcJ5Ud1meOq0MfqkflrULBS7G5KgsbUgdpMIdC8uoBSR3fts1fwBER2kJOPJJAJW6GMPToKznOMJLYMN66ygwystGjFVo/aAlYx8DME3jdWqv07qN05U22s8IqujYoleSoXo79VWKHOdr6yPQv+Rno8BoHDFsEGRtgMXzE4YNAl2Ob9wUoLzpUg82DXBUDz1QGeACrAumhzbrc2HwuS5v8fcKMCodvzZsMSzeZcDfUezuvAK36lvrBjZbXKfFbd8GfgdwdR8ENAusU2UAo8AucbRVJVGB9flTG1eUEtSyDhyo62RZUE8PdwOwzU/aHwbjoAtT21mvXWuUWHFbmPr5IlhyA/blx/ireXkNpJ0B2A+EANh9AGwAUVFbxvighGS8Rpma9D0o+gZZCgP52jV/O3O4/CMF1sc0zM0gawf10jouuU58zHqtVb563LWpqSedh/yqSyJppgHu1cFszZJBonZwrK3bOa63CtxVKqs2BO7TeGfAXrjlRyB3aVc3TgMIxuR87VQvBvTuh/OJJwGW/wlRB0tc12N8YH6zp96Oo/zOUo64Bu6GrZxnmFsQpf0TAAfq6/OF37tQYACz3uhI452xFSzNtQKneQrhDC/XrAUYgVWzQnRDJ3lL+aYMBkzOaddmBmAwICm+Kt/kDX11JMDQn/KcFVXO3UjB+S7ABKYoZXPjZ/Ktm16rQrMLs+Dpwi4AjkbemmPRAIBjxk9mtViTb14rYpKfngXrQpwEV6DUrEqNUp9UThrRG/Et/94Q4OqHyu5duzs3wXvLoJ2r7dsCnMpaVi3PZbDM1wphApyDbteDLgFOgBPgnNbstJb98XL9kQqcCpwKnIrzcoqTfW37+qoUGBc9eKUsnx1bQyW4cX84gGk5tMYT0OJEE8l15mk3WtE7uwHNsqv+L4pxx9n6zCzpcjRYb8kXYxgkWKaJd6gRa5h+wbKvrduS+u/3mkmAcf2/WfM/f2NfHGAX0EIhikFMQjhwCbAah+ADZ9x5jmuQeAQsS0HrA3Lsb8q7lnV+W1z7YOgD3A1wmQiKiYJewCUogTMuLboLNtINOqwLsAnoadNJWh8rPGcECwlA4SGcACWIHjOBL8H5Wl5QDgLOg8cNLGiHB36uba/9fAdgcB16gOjoMudyIPQ1Hfq0SsHxt8DMkWPVXamQhAC7vOtrAWo6MBaW4YLdp41ICimKKBshYbpepHQAqFJQLEsdMzALgOAuYBoA2Lsr6pjKp+Tbi1gLZwfbN9P9sM9rQ4DXxDBo2BqXw8TsOth7r4zqKDDkbW/syD+PBsA6Q1WAURnXbutp1JpUVaAuAKMSM7hKZasaE0BUB4ZaAGa3g97WowB/o9Bq+4YA3/0E2KqS6gTl3+9LXK3+d/oIbE1nFFdeLWAUuF6ry9CDQo6Tsqp4XC5/K4C94gJIixQYIBI4RR3hN99sIcBFcVnlBEwEkIHHtLCbAn6zC1HyVf64gl/65i1/dgCW/W3aXajRZhoaAxu7BTUazab3EFpFrVOYyZNVJjq2leG8CoobUd2KWrclZQK0BX6EUAEobkTvaQIAKi4JwupcDAP/unotqfverukDLDdkyoelbTtKNfmmSkCchAzhtkD3OivMx6n7VNq1N3GioAXYADqB+qbxWS1EqLgCoFbYAiwpbimLByi2pwGW3BtxR6QOZXDotG/0+yTAdUduBQ/gKgr77n6819uQGgWGaztp2QUQ+MuWHOWaNL44D5hSvspbgKb61TLl+Oxnma5h641VTErLMDUAy3HeslNA1WB7N6GeKy6GuB8NiDb/hLf2HdjFAWxPzhrddXaknAgU+L2RAuMxpeguv7Xl5/Wn2W+P/bchwDNbilA9rTLSRkl7bI+dmHW+3MDZEOB6k1eneLvL2bgf6CokvAn/afBvC3C6ALsOTdzjYEqAc9DtetAlwAlwArzHqSfrfJrveS399z/52SM93hTk5QAAAABJRU5ErkJggg==;" vertex="1" parent="1">
          <mxGeometry x="643.5699999999999" y="505" width="108.87" height="60" as="geometry" />
        </mxCell>
        <mxCell id="uEjKgLJkbx4UJNpJNe2C-8" value="Adverserial selection quant." style="text;html=1;strokeColor=none;fillColor=none;align=center;verticalAlign=middle;whiteSpace=wrap;rounded=0;fontSize=7;" vertex="1" parent="1">
          <mxGeometry x="669.5" y="490" width="57" height="8" as="geometry" />
        </mxCell>
        <mxCell id="uEjKgLJkbx4UJNpJNe2C-10" value="" style="ellipse;whiteSpace=wrap;html=1;" vertex="1" parent="1">
          <mxGeometry x="342" y="430" width="144" height="100" as="geometry" />
        </mxCell>
        <mxCell id="uEjKgLJkbx4UJNpJNe2C-11" value="" style="endArrow=classic;html=1;fontSize=7;exitX=1;exitY=0.5;exitDx=0;exitDy=0;entryX=0.011;entryY=0.458;entryDx=0;entryDy=0;entryPerimeter=0;" edge="1" parent="1" source="tbbQ2e1bRk_ORc1xpDJO-4" target="uEjKgLJkbx4UJNpJNe2C-2">
          <mxGeometry width="50" height="50" relative="1" as="geometry">
            <mxPoint x="640" y="340" as="sourcePoint" />
            <mxPoint x="690" y="290" as="targetPoint" />
          </mxGeometry>
        </mxCell>
        <mxCell id="uEjKgLJkbx4UJNpJNe2C-12" value="" style="endArrow=classic;html=1;fontSize=7;exitX=1;exitY=1;exitDx=0;exitDy=0;entryX=0.069;entryY=0.25;entryDx=0;entryDy=0;entryPerimeter=0;" edge="1" parent="1" source="tbbQ2e1bRk_ORc1xpDJO-17" target="uEjKgLJkbx4UJNpJNe2C-4">
          <mxGeometry width="50" height="50" relative="1" as="geometry">
            <mxPoint x="530" y="550" as="sourcePoint" />
            <mxPoint x="580" y="500" as="targetPoint" />
          </mxGeometry>
        </mxCell>
        <mxCell id="uEjKgLJkbx4UJNpJNe2C-13" value="Adverserial selection without time dependence" style="text;html=1;strokeColor=none;fillColor=none;align=center;verticalAlign=middle;whiteSpace=wrap;rounded=0;fontSize=7;" vertex="1" parent="1">
          <mxGeometry x="385" y="437" width="57" height="7" as="geometry" />
        </mxCell>
        <mxCell id="uEjKgLJkbx4UJNpJNe2C-16" value="Add new features" style="rounded=0;whiteSpace=wrap;html=1;shadow=1;fontSize=7;" vertex="1" parent="1">
          <mxGeometry x="354" y="540" width="120" height="16" as="geometry" />
        </mxCell>
        <mxCell id="uEjKgLJkbx4UJNpJNe2C-17" value="" style="shape=image;verticalLabelPosition=bottom;labelBackgroundColor=#ffffff;verticalAlign=top;aspect=fixed;imageAspect=0;image=data:image/png,iVBORw0KGgoAAAANSUhEUgAAAYMAAABlCAYAAACvDo85AAAgAElEQVR4Ae1dO64cuxG9qVcn4AUv8F5k3ECBV6DIgQQB2oGgVHqpAa3AgQwvYsIx6kdWFYtsTnfP505XcDG3P/ydOnWqyJlmv5xOp3P+JQbJgeRAcuDYHHhJAhybAGn/tH9yIDkAHMhgkDOjnBkmB5IDyYEMBpkVZVaUHEgOJAdyZpAZUWZEyYHkQHIgl4kyI8qMKDmQHEgOAAfyO4PMijIrSg4kB5IDGQweMyv6ff70x8v59ecRMpYf59eX1/OPdMaOIAM+786f/nMELozH+Pvzu/O7z787OI3LPqafP1af45nBz9fzy8tL8EdOC0YJr//x6fybnbq5Z3TtZV/h++/39+e//fPv/Pev818XCM1S2e7139/Of5Y2pe2/n//28dv5v6X9X+cP6p4/v/8vJPaPf7ycX/7xI7x2H1L/7/zloxrT118X9+2vr/3yyBXFj/3GuK3fXVuzPbvX//0vxb923AYLxYcP//biQEnBYwngHIdHNjTjFy4tYEb1QWDcVytG/TzatTgYFPFaImPHOBhM+tneVSM8kqoGACSeEWTvcOrYlUVn12Xd9aW68bqQ/UTCVAIAB49GABawuwVBIRhpAbLjIDEo4yhcUTiacyzIBYf4Pt/mHuPc1G9n621ccLY3+JzOJ+TC+/OX3xab6wVJ204faz8rcePocdiPrxzPcYH649qSOv7z6fwuZ5IXJ2N9G1cuXCUYLGW2U8EAjW5FaXlAAYE6jtbWFZQ9gfCJkwbXh3XrsqfzyYkLtG/FCoyysDzkZmxasE+MV5mxlZlFFNCjc7X9F52lB2NshFEcNfqEcS8EArTFyMnXcGFTvwNbb+EC9qUmKJ57iGeDkRfi6rRYfhUXouQtOnc6C58Mx6Y47PqpOTHLBSgzwOwaiYO3yRGPrxIMTkLUIkiWINcLBk6A0YFpmt5k4Jqk+D8JgL1Pn7usbu/g4TEsEeiZx0gQEdPe2rF3aDoWR24zTLju66IyzfIUOLDuIwoCYNoXN+1IEPD+/P7NLI9ZjIUbg0C4Jhhs6re2u/RPn7uMC4RBvCR4MkFG2jqd0Yd0UNZ83cCFJlGLOMf+67+zmuKw7qf7f54LlCh1Z5/Qvx42rk3Nxfxf8SvA6TrBABticcHvHuySEYqT/k6iEzQuN544KTkufG8AwjN2xgoQkl0JHx5zHdVpZ+qWfri6IfsTMYV2fPbTJXkvk6f6W7H3YuLEH9rRmI/EVkQV+ypBoB1fbCvBSgUOHL/Mtio+UH7XjG9Tv0/n3bjgbeyc0Aus4Ig21TYq5TZywYk/tCNJA7RNvukTBbJT6euIw6Wf1rYnXiY1SUSPCwuY0azFaorglp8e9/njKwaD2gnMRppMVK4TuY04dQklZXqfIFJ+JqAzul45OS/iRXX8+f3X+ctHEa75ur2QAEHxnJ8JiGDxeENRx2sUWH2mJsQPhcMFFi208L+uiwSgsyQnjq9nAkvOWuwXYR+dI/zDcZS6xEaTn5v6DW3swwVIRPrLZMSpaKaEPhMGg61c0DMw+F8LP/tix1dnOCycbD8ju0fnouVTb3OX3KzlSJYz3z3cJBicTisIvMpQRC47vZzNYj3h4BjKSlY7W3fHwVGcpC5qq2RaMlYn4NWhtAO3/YyCSHOu1A22iLIqslETlFH4JSBy2y6I1X62fWtnZbEAQB06YI3qnLq2sd9tGyu4EPVBbC0JgpqJ6jb7gXE7F0rdMEuIlluAK9GvdmY4rManxwP/T3FhATOs081ufDt53PrhDCa3CQZILp2BqM7yEoXOVKvBO9nqgHCUvVTxwmPvcEg4t17f1NmK+kzdYXtYN9VXs8S2/tH0Fx04FPH6ZV/FMAq+HAR+vpplAUsSzgyNQJB41+8NoqDI2VxZUlP29QLijwvuA5FjjjSBqpRV7ZVzc/0uy3bNF7i6ztZWM1xYOytAm5TgrftB/2/mAgeBH5/fmRmi4QJjrpeQKDnSM50WF6gDx72SC2PMGIsBNmYMhQsthnlfi8kVggELiv5OwEw7/fVxkLBkbAcQGZUclZZ6qoipsr1ggELF5cqviFQ5yebkt+GdIBNN+6mfHBCapSxpg7DpjZlEoD7/Ye4TwWTczTV2CirfwVs5Tpuhs7Byv+3Mi/reFQCPWZlpyZj5E/sfzVjgOs9aesFQ9d3yYbnf3WCwlQtYviYltl8smJ4/ZhxRQK+YbeUCLkMt4gl98HxZ4vAgGCxxYQEzwbDlZ8VF7snPyzFZCAaXV5hG2IgZzqJ6orixbiM2j1XX2ME5gQjX0B9rHHvyHwXfzNKed6zTuA2ThsRnGsdACzIYBKBsAXSPspi1HUj4RqJXMuAD4VE5NJ4p1vuOIoLj2dLx8NjX7hkMHjAYLD589pB9XktMcPDjzYTmhStaqlmL9dsuB4lBtPw5j+XbHv+1x5nB4KmENcl+bYfJ+pNjz8qBDAYZDMxvjZ+V6DmuFPHkwJgDGQwyGGQwSA4kB5ID+T6DzBbG2ULik/gkB47BgZwZZEaQWWFyIDmQHMiZQWY9x8h60s5p5+TAmAM5M7hTRoC/nz/Ib+fhuYm6VcaYkMdzWHqWIPHhbVXyIbu7zdI6wcA/3MFPgCpD4YNRZssJ7fBUvrxoBe5TZTc7/MRWAf027OP0fmsF2VYBX5vZ2S6A7mm3GjBlo71ZJPA84FPGZguP3pYR0v/g05T3uOFTo35bg52CwhYuyLYkne1BjD39mJa2VnB1h9ui8OZ8l+25tBNugQ3JZ+wWHnUvrfl2Yy64emVLF7fty9EeuOzr1Dzee9UxFQyiJ0TBaP0HQK74IBE6WRViIp7dDbQPDhGyBgC30RYIS9mwjMlbjsE4fP93eN9x7UPYnutnvccH2tsbvZmVoKBWDFEEA/GrY7B9nrr/GpuLOYwv44KzvasL9ywqtg+4MMQM6tb88Lxj/B4gKfB+jLYs4yaMqr9Yu0d8mOKCBCKHIdWXM6UI11ucWw4Gnb1APIlsZ2eCAc8eLlwqsWQFcjqnFqJFnwH5UEAK+S3Z8ZoSxb++soN74Yja6rzBqhFiU5ZnYGXGpZ/MZbzkmpppRcE6Ogc2wszLPPEbCNXU+BgruFdhZHmg8Rw5+e254G0L/QZu9YTP3r+AGeJXg2tc9wgPwK1v79G1yO7ROXnK3czYA7vbcWt7Bv9Pc4HKdvG+RuJg/Czoe17vfYFMRHz9CYSNp/f3CQbkhHVXUDqGJZ2eExtxgmDghSs6x8ToOkLgNKYdKB/WOxIAuhYvGdC1OhNz9wbLMK19uIwKItRnn8VScJW3xDXjck6DGH39dv7yUXZ77dsCRSkM/muCwTYuUL9/mfXZ6JyM33JhCTPmpXANkxA9U5Btx3Ww1wJFeFR762t7cKGDt+cs9hvsagObYOI/L+HC6B3HFOxi3fFt5rHmxrb/hzMDWPOPCSkZZt1O+cVsdctkkyzWXNvS4SoAOEPgIDByYksWP4tg4ROn1UKHgk+vzbR1yMu6nXNj2RqcYjEFXDokHy0ZRNfcjM2KP7Sjhabj/NhnEbba90teFUp2UFiMcNs149vIBR/Qud91mVDxtBnTHGbIS1wbD8R0gEWcyXN/tnIBedPxawkGggUGARmrwkP7ifr/Ei50ZwVYHwW8/FJ9GfNGm5Q9Lr02DAavP/viZcVnodNI4I4IXtT5Klh6JjAmlutbyXY444HjZpmIgoRuwwDrhSQcA/XV1BFk8FLvogD4jN4FA/MCdcBbZ+CI/4s9V/pMY7XBqwqt9K/3GWEfncPyvs+lD85GU+e3c6GKNb3o6K/v74MZZsSFJcy4b8wraafOaPldw96mPG7wLWM/jQfY0pfzuOp7HBeQZ70kr/iGCl7IdXWs++L+j+wenaNZgUogXD3AlYv0JSjf42ue7/vaQjDgF6ubLJMqu8xY/aByqXGAXFa854Uragsc1Qg2fwdh23AATgUDfu+xCTQDHLQDe3LDNW+D5lytG2zTZlW9ZSLCr8Vg7KyCJQqdGeNg7X00Rj/mieO9uQD1acGW76NaLixghqJqBRRx0jPQARb95bSOP17MBeBKEHAiXsNYdL8HdpnlQms351+nnBmIf93yczkYnOIs5pJgAPc22Yx8QaYz2AHRCiicvRSnDRyvvsx8LGiNg84EAuhj5DRN3yl7LP3E6yOSk4PGy3L+GtXj76Ug8OP86jNH1Te0hQssiIP69UuLi4w5eFWox8Ifq7b7IsfiNOh3sb+qT95SVjCOuID9Cfqt65FXNZqgxtm/OVdFa4gZ9kNzz84UcCw+m9f9wWtRQIf29+JClBxwP4v4R0GPvw+D5S+Pjbe9P4YxRuf02PF/GOMeKwnVXiF/mnaPff9UMCi/PFAiMgwGmKmo7xNCwWcBCK8tGIUDAixtxF9uMamVwBEZ5Dx/2enITA7O18rvoGu2GF8Xp3d1d54zGC4HSYAs37UE6/5yLcKNRcQHCe8IkSibsRUxUHYYiaqxh+ChyqLTjQIhC9MaATBt22wcx93td13qAR7ZmRHP6hQHiGuVC1D3CDNzLRJOzn67tmJblmd1TKBk39mBC60fWx57XBBTwdz5j7mG2HkucN1ROS3Mg1kTtqHvzf/NjyC24NMJBt6R83gLyLYsOXK7jPPkGC84OM5YjOA9OR4gYs3yzgHGvCjeo6Qh8bFasi8eGQwWybkv4GjMo4kAZrmdaT9iES0jXgH3e9h6oU0MgtEsb6HcNUXhnnUnHvfjfQaDOzldtFRzTye8Ztvg4IebCU3zKjPhwj1IGo42O5zmyfWDRAaDBzJGcYrs027roInp9UUkMX4OjDMYpPCm8CYHkgPJgd52FM8R6TJjSTsmB5IDyYE5DuTMIDOCzAqTA8mB5EDODDJrmMsaEqfEKTnw3BzImUFmBJkVJgeSA8mBJ5gZ4G/Y9ZO6G6L3XX//r58q7fwmPwk7EC3A7yi4wVh34vxTcupIXBjrHfyEvfuUu7N9PDOQB4HkcffyuR8B4bfncSdlawLZzmLs4P165LF6/0j8ALy7BgPp132IbLdPCLZ1cMTRSwYzZXFzsmZ7EBkzbw3ht8GQbQ/8thDNdgbEmZhP0satP8fbXWj8ev8TZvHWKeNtTbaMVfwmbrfXVzm/nQuDvY/UFiBlP6qGlwfiwpR/gJ7MPecTB4MC8PWA7Yu4I/JQoPsZEpLy67/c6wdd3WWcfH7Y1kJZX9fq4zsEAyRVDQAoQl6Ye+NxZRF3U5ZE8UPvVaFc/sv39xO7Y5JQ+f1yrieM8za3fHb95P2R+gLm22FBboKevc+2aa+JOF/6aXcUJdt5vLt1buUCcgzafH/+8PW92whPMP12/tDZ9wv6dX8ueP+Vfv+PZrVX4gLZxLUlPju5erIhGFDEkY20mqzMzS7kOhqrzDQk+w+2050YCNYVPcqPgMOMgIj15feko7hgIH2Vvheylf77WYvFhLBR96BR1JixHj/b8mSSvrsZUzRurl/3t+u4gu8pIFDBT9rufQZl3es+x68K/XX+wIGjDSJBm9ivGrRobD28uHyHh1jW26NgGiVB0Tlog+2in5x1oghtWZENxlbswZnxQiCo/ff84brXcCGw+5RdsO9buUD9FpwomatvooNjCqacXPw7wvAaXCCftk/QR+fk7XVuxeNWXAAbhP5BOM0kDiuDgXcMD86CUS54eUVX8HGHTyW0xZk0KdcHAwoEztH+8+n8+vl3WbfGe5QIAODlpSTsjJVEDjMUqaj/MXam7t6Ol2sEwIl32cN/kH2RCAPJCGub8UbnhKj9JbsZ0QGhaLJUwFHZoPZNNoKLMIa+R5ytjuxtG7+KkeooNmcORkKGu56aGVMkZnSOxkkZcLRbah0jcapyTNW5hgsgXLqPKGSwXOQDsGrH+d0mLijh9BjWMQ+CwZW4YH1PRN9pAycd3hZ+HHgMy54a54Jhi+s8FwbvEYH6R9hw++uCARDNOaAVbXKSUYY6jlTsZJg5d5y5NzhD6HXB4NPnd+3LZCKDocMJKby4OPHHe/VY/P1CBDiv74PzcE7a4ft644/6OTwnGJGIg/iAQ4fCG9SD5FbEFrJbUdghGHSyHss7wRA+Hf6u763Ye4dxdgC8y8xBBKEGjypW6qVGIqaAT6f/uhz9L3ZQAoz1xIF07Ecaj4n/xXewrxIEhB/L5bdxwSYRWFc4O+oHg6txwfg5LUVpbcN2G58lvMo4rs2FJX65MbS8Oy39mqjjUOAYZalELXsEzkL3OSG7YGbQZnAAci8j8sT1xwuE1uPSYylCQu3ascvY+JqU64h/IRG2JWV1v5wIQdtYl8JZsHcBOTLw8jlyLgkCWpAaQS846P6KeNEXjn9+/3X+8jEQLiRrcJ7r9ELi+w3BqXmZCvPIiHTpI+DY/+IsFA6wicJUCy38r7M+EoBBMPDZnwht6Z/GUP9vRXHJHuE4FtvQ7an/RbD0TGBJZExb67lQRJPr88eVD/1gADa6Dhe03sD/OlkTTdDnKqY4jhtwoecfFbdAV4zttgQD5TS1wQqCPkeOY4VPO5q+N/q/ubcX5QqZ+ZcQ+lcoYZbh+lsEmoSkCDeDhmTT43b9wOsi1M17ZoU0VdS1uNRxB0Zz7dR7Xf+dcefuIwe2yy8XBlHTLpRVWa1c2xIMBmX7YqgduMUJy2lbRl8+luAANrH8JWyJJ40AIQ8tBn1xa/vWzsqiAEHlGt8QvNd8RjhPB7F2HLTkaHFA3Jp2bBCRpTH69AlEPxhckwulbvBFxxscE2qHTRjw/C240OAZ2GJCQ9YtE/F6qxdLcpCgI0Vk67XIGcPyOAgbdecd4EJR0/3Edq1xUewl85cvDkUklsAuwlIxCMcbfhfCgaS03amD+zxtFxYMyl6q0+GxWvqppI6z8zqOvqMuve4wbJP7N8x6Brgix8Q+Xhwb+5Kw2wDNQeDna+dn0GAHto0RCMKhzmRiXHBc0XczXkD8cRnLIODx+JpAVcpGHGJRLraPEoXxTz/34ALU0Q+eMZbY7jW5AHj+8en84/M7M0Os460zeOt/1+fC0D/E3gNsZAwrgwEQibMilQkXR4KG1fmXcD2NnUjuK0Ln67WBIP4iLyI2nANDVJGTQXc/sd8qA5RxSN/EwbjPr58/nd8psfEzA8CgEsONV+r4yX2XtgQP/NRjb8vXurkO7l9zXggx+KSAwDOqIgYKVxSkIBjIeZyFtVibestMTe7rZIS6faxf7lf9KWOJRLzeRwGhzsYMNs6e5hrXT+W1HWrdmkdtgsIiwGOOlty6wUDEsOAVZNfQP+y/4mvBBPooftS7Ho9DfhQg2bmdMXIZsbmfbcv5VVyw/WmCgam7zvwtrtflAvn3Ep7QB8+XK3Jh0T8I15afFm/g8kIwaAtoB7jH/+icIs6G/Hfua+SYeI6JAWJvskf5tcsSue48rkfCuNMX5ITHtnPvPTh7rTbHDs7JwyP6yhVtc1QuDDkWaVNggzcXDIaDDgZ4s/v9rELWoHnmEJEUM40Ditj+NiHhizL7/dt6jOAc8UnGitdgZnmwQEDjPx4XxO7x53i2pMscKBjItLkuGZilrB0ch6aRun6d9bfLPM1M4Z7B7M23HU3PH0O4tcPt8z+MVXPrWce5dlxH4sIYI0gMZpOkAwWDMWj7OGm2kTgmB5IDb5MDGQzefEb8NomXgpF2Sw48FgcyGGQwKNtrpHM+lnOmPdIet+RABoMMBhkMkgPJgeTA2/tp6S0jZbaVmVlyIDlwFA7kzCAzgswKkwPJgeRAzgyOEvVvM076+Wx5Ev3JHQx+SnyUsV7On2NxYYgPPPT1Bp4nGs8M8Mm1l/bJ2Sd38qFhrzl288j9aAuGYOqOm1X1HtOn+2VrCPsIv9prRrY/MNsM+C0j+v3C5yx2eF5jP/xd3824AgwD2wpmuD2D3iYD7tVPmAdlt4zDtBtt/Ddqb4ILtBVG35a0l1Sw7/4kR5+RC7J9CHJBuOSwlm08/PsKHg+Plv/DYEAPLPxwW7a2lWwhfZZlPN3OgyQGnT1pGiGgvU+KyLu6ZL+ZP7+PXxlItuhsTiZtohgE/QqewL61bcHh9AM2dgMvwijca0fG5j6xvA8A7p6Zl4ZcjIPDeKofpV9LXODrvdeQYj3EgQ9f3ctucK+vavsuR5+OC5xUSAAoWMdaaHkn9zz+TGkQDGrn/VNs+Li7m/b4c3hsNl3b8fF4JFt90lcLADmee9rY9HVwrezhoe4xZfkdq2Vc0VOgXPbCDLklkHPqAQHRKZ1oQX0ifHCdAsVcnbpsI2QYaKog0PXKleZ+7LfCE7AzmPaveU5B3dG5cOfQJiDyTpgOp7i//DKeqXsHY+eZdctPEYjoMwjGwVh6/V7iwvg1pNSfUgcEpREGYb8GeCxxQVYixL+KD1GdFsfoHPSfzhuOBf0sYxz4VcEYcJgMBMPNMUG3DPcj+9/vXD8YFGH0b4CKp8cmK8Oydec+nCLtBgKIR627GKwYlcTFEkcA9gRi4gjpChmlfqqrrAu7jCcWJhY3qbP0S/oQfXImVt7rypnIP6ugt+Os9SCxHVmjc/JKyzKDCPsGAaO/fBDWq7nS1LnVHmILGq/hGbbVwdsLGWbbsIzmA1nFUWNM4/x2/vKxLr1JcNX3wf/Ig8jezKeYi3G7rZhQAIflh7HdqL7IPtG57pbiWjg9ht62+l65tpoLztfcNvmtr8H9lhtlp1ZvCz+OC7lAydHMa0hHW2+DfaI+93hw+/PdYGAJ3g7COiVcr1lyYzgnot6ZLjuGtuxygC7ftC0khc+oH5q87LxF/N0b2WDM+tp+xq3BAGcIHARCJ9bjkf+9U+JxsN00TvNjUcG2wu8MgJRVkP4WBYpBxrPJHg5/wrvyTN4AF4qtCIBggUFgHOg0j8gOKihyPaEgD8av65z7X/pYEwJoczhbEx7A5ywX/H1ch2lHMNT1l/+5fy4JGS2bjbgQXjO4Og2Ca1r0R4FXxrGKC2IHlURgMFHcKJiI7XpCTsmn1ZDevbc/3wkGbaet+LvZgjcMHKuoDWWN4Qp4KwfMhqeN5pQ4DF+D6PosfWiCga2vOjDPImQKWz59drJmTEI4OxMwjin97XwaMf/47fzX9/dlmaiOgUQ9FDRVL9bVXR5o6wgdmesb2t44O+Om7QF16Hscz7DdXmKADutmAigGyqnVmCtG1I8I++gclvN9HtTr22mPCV87EyB+LNlN6priQhQMRDSl//5Yzp8oOEVLSGu5gOW0uENb2vYuMfCJ2fW4EGEfnZtbhmx0VGEq9rvXZxwMjNjWtXm73lUjtTeMZGx1V9CewK4RTluGSFDrD0klgAO51AwGQdfnhk7dBsg9jQZCY9clY8LNtgn1teLRCnlY34JoNqLonFbXuckeaLcBz8r1INmYETvhRfCJguqy3mbcUm4wfo3F3P9kd7skBXaLMlHrC736Qy4E+MB95dcwMkvkT80luq8TVAdYjLiA19xScnOu1A2cqD5fxw3n9+dCa/fIN2d867oaUnGY44W/Pw4GBXRVKQqlzYIpCPw4vzojTkU/CTiurO/g4jH0VROD642nYkSWuqxAxinHw2AgXx5HJFQ4yRumfJYjwtH75Ey2OB0eO4dDBw5+7ufqRGd1QkY4zhCWs76wfLAMAW2PcNtiDx5Xj2eVGzxrM1wih63ZaySy6me1frxeLP2xwrwrcjz2S2fFlNlX8Q9nalu5MBhPwTWYGQwDwRYuNDwhX7V+zEHg4teQbuSC90V/LG+m686mRR+g/1ZDC9aKT/c6FwaDWMydcBbDB+v34gRlKQVmF05E5R7jwALa4BPFX81WInClbmnftEEkK7MWLdpYzvXTGQkdX+qFT1M39Jvr1/W6OrrGRpJJduYCAdTRFQASecnqbFapBK+T7ZllBbjHCKOtO/zOgH/BUYKqH+9ae0g9XL5bP9/X8pZFgMfd4ALlBHMzZuafXMPyVZyt/UbZnnBtzClbH7VtbBKJzEoumHoLHzpjg/HrtqXNUo65arALdELsCJ8jLrhrkb3J/5YFdW8uWNycbzIuJZHT49X/R0m2vn7n/8NgEJHzknOtIU5nOHdphnRJm3nvIIDegmR+hnaLNh+hjaGD84xlTWLwCGNb24ejcmGI1yhpuLPvcr+vEAyizIAypCjSp4g/BhH2sMPhAj5msnGWWmaQRwsELCyH48IwELyNZPgKwSCYCvZ+8bEA4B4ClXXcMtg8fvazJx9A8Oya9i2xfvS2jsWFIa8gaWiWkx/PftcJBinyuQtkciA5kBx4UxzIYJCEfVOEHWZgacu0ZXJgNQcyGCR5VpMnhfnxpvppk7TJWg5kMMhgkMEgOZAcSA7ky23WRtEslxlYciA58EwcyJlBZgSZFSYHkgPJgcecGeBvlPkp33w24fLsq7s9whMSPn/eOebHkbgwztLhWafLnwQf1znG/q2V7cwM6CGx+htq+s1wu/XCdcEAR795MJjagqA3brt1g93+wG6N0G7r4K6bR/yhvaXr3KcHfPpz+Cj/TIAy2yC4rRMGD35tdsYtXDB9bjcNpD1+eDsHveUD42Gu+3cZLNRdxv2EXDBcKrg53yjbZViuYGB8A7/3L/ab8Y0d75kKBvcC8ebBAJ2sEoiI5/Yh6YJPhKwBYGFTOBSaWje05cvWY795HNWtrxOBfBDvBa3rnW8yUTdOFLnixBP9wPLVJqGjDLeEmGgjsukmLjjbu7pwP6QS7FnIynHwghSDIdyv8Oji83xcuIg7BrPKgZtrSsStBz23HAww84qmV0S2cMM3efuT3tAN/i+P5ruyeF/7WH/XcJjxyGZ1bTkQDCjbbI63YAQkm3JKeanL4gZUUG9APgwmpr5KStp0rgYDL3KmL15MOrskNkJsxsuzu2ITa1PCq8U0SgSiczHmPkDKZntKzEwfFT543glf997R067MtcI930Z8bPDHdp3Ad/sS72sP9bXBm9pGnqgA2dyL9u9xJe7XmAvO/0y23L8W2T06dxUuABnMZjEAAAWCSURBVAYKI+8v/rjBUOzV1bOYB77eZz5eCAbgZD2x1WJCBCrLSm7qjkKjCIfH4px4b/xYP9zXLBO5usO3l60KBiRcVfjpGHYC7TmxIQYEA0/W6ByTchgo5OUhEkh8PRh4YIlBC8RIEDkQCObiGPzpHRqPZX3V4+1eMkIYcP3KxnQehEoLPwmXfXHLwAlZBL98f1/32fcY6zGE41sTDLZxIbJtdE7444OB7KRKXGQeChec7eKEZcQFwqPxK6yXytVrjjd35ALhN/ca0nGiNcJmwMUG9+e7dxgMIOuvxBgPXgu3Fxcr2C5wDLY/1nWK40Ddtk97GbcKAGaFl756snmlJAufEa8qhu13BgpfFHslohIMUBwlCHihBVzjwG3xV+0gwb094LrF1NoB7m8TgTrr0/VLH2tgBYHrZm3e4Tjo1WA8EMZdl4o2cgHtpOwndosEna/VJETwq1yp45dr9RO5ajgG1/pcaHxTYx59x4ABoNr7Xlwgn2wxbXFb5pcdQ8VSNOaon8Ng8PqzTyoSGFlWoM8i0kiqKkwAfhWL5WxDjBEZDesqSx21/TIr0eS+6P8qWNr5poUL2ioZOws2HEcCgP0iZ2/IHIlDqVfNBPA+dRxkbYLjUABC4bDBAG0tWT/YVmfgaGttX+1cVdDqOKvQSv+6nzBuL3TROcDTiVa3zilObOcCZrLyRebCa0g137DfaG8RPsbQ4yBLhWZ2yNgPuGB9Uduqfc0k9sXjCva+AxciP4zONe+ADuyN/qA5HNyzjT8O1zdS/0IwYIKYTFAczy7tGOFGAlWh9mv3XtBLEHGgmTr5WnRuL8Nh9mHE+wLhcn2HPoEgNI6u7mvIzIGgKYPnRRyYaI0oLgRucWDVPuEG5awt5QU9NcDWugH/el5IzwG+aYPws+MBcXNjafrE9fqAB/c14+Z7tUj16rvg/N5cgPpqQIQ+s8gbvsH5Hma2PAWbHo7VXt43hkKIgb3OArBsc67WfUsu0DLRL/M8ROM/fnm1Y+9raojH+y0dLwcD+TJYO7rPPJAwdUlpCLbPNDoGAxDDerCtOuvogQ1lfRDq3VvOY0amnA6PVfaNfZWsseeIJE5I3iCbK215ge8FAt1mqS8SDJfNG1xJ8EdBt2R7kb3ZFjhT1DwwbcRf2nvRCnHhsTezgEYYo3ET3n2Ro7Hr8RUbuP6b8ztyoQ0svUBQg4GZUWJfKt88pqbfOKYBFzhRawM6tO15QvV43oBvXY0LjLsZP4wp9JeKCWLg7wntO8AmvJ/41WL8fOengoGsIWtxJbHl7P+PT+dP+sveZmZghdmU5SWfSjh2XrcUVK/LbKU/8wDDrQoGQAYhI07xfSBQztpktxIk+LfjTcbHAiBLB648Cka5xnWYe2z9NtsmYi4vB/UxszZx2SHgwjY1dgicJxJlEi8eUwloypm6wQDusbhF4xZ+xgJHzv/S+z4lGENx/NVcGPfZ4KFsXmcOtrz9fslfi3EdcsH7pwnwzv+i5ZRrckEwb/zH+6YLBPIcTlRO2xj7HvBb33PQ/zvBQDnqCmBAWLxooNgAsSJj4LnlbL846Yo+HaMsOXIsitts+tD4wWzRCJodK3JvcP2hx7aa6wflwgJekTY9p/2tD8yM8QrBIJpaEjExQDRrkKczZjH+e4kFo84M7pD3BPg+NQ6jRAKxeBkGiqfG5mhcWNCM4WxpoexT84THfoVgUJcUygNp7ieqmKmZZaCctu1JtmipZs/6H6ku4NLhZkIXCNeRuDDmJSSkqTMjjK4TDC4g66hzee3yqV5ilpglB5IDaziQwSADl/m53hoSZZkUn+TA2+dABoMMBhkMkgPJgeTAY77PILOMt59lpA3ThsmBt8WBnBlkRpBZYXIgOZAcOP8fuGxIQ/7Zb+4AAAAASUVORK5CYII=;" vertex="1" parent="1">
          <mxGeometry x="318.25" y="459.5" width="193.5" height="50.5" as="geometry" />
        </mxCell>
      </root>
    </mxGraphModel>
  </diagram>
</mxfile>
